<?xml version="1.0" encoding="UTF-8" standalone="no"?>
<!-- Generator: Adobe Illustrator 16.0.0, SVG Export Plug-In . SVG Version: 6.00 Build 0)  -->

<svg
   xmlns:dc="http://purl.org/dc/elements/1.1/"
   xmlns:cc="http://creativecommons.org/ns#"
   xmlns:rdf="http://www.w3.org/1999/02/22-rdf-syntax-ns#"
   xmlns:svg="http://www.w3.org/2000/svg"
   xmlns="http://www.w3.org/2000/svg"
   xmlns:sodipodi="http://sodipodi.sourceforge.net/DTD/sodipodi-0.dtd"
   xmlns:inkscape="http://www.inkscape.org/namespaces/inkscape"
   version="1.1"
   id="Capa_1"
   x="0px"
   y="0px"
   width="60.734px"
   height="60.733px"
   viewBox="0 0 60.734 60.733"
   style="enable-background:new 0 0 60.734 60.733;"
   xml:space="preserve"
   sodipodi:docname="facebook-square-yellow.svg"
   inkscape:version="0.92.4 (f8dce91, 2019-08-02)"><metadata
   id="metadata41"><rdf:RDF><cc:Work
       rdf:about=""><dc:format>image/svg+xml</dc:format><dc:type
         rdf:resource="http://purl.org/dc/dcmitype/StillImage" /><dc:title></dc:title></cc:Work></rdf:RDF></metadata><defs
   id="defs39" /><sodipodi:namedview
   pagecolor="#ffffff"
   bordercolor="#666666"
   borderopacity="1"
   objecttolerance="10"
   gridtolerance="10"
   guidetolerance="10"
   inkscape:pageopacity="0"
   inkscape:pageshadow="2"
   inkscape:window-width="1530"
   inkscape:window-height="836"
   id="namedview37"
   showgrid="false"
   inkscape:zoom="3.885861"
   inkscape:cx="30.367001"
   inkscape:cy="30.366501"
   inkscape:window-x="70"
   inkscape:window-y="27"
   inkscape:window-maximized="1"
   inkscape:current-layer="Capa_1" />
<g
   id="g4">
	<path
   d="M57.378,0.001H3.352C1.502,0.001,0,1.5,0,3.353v54.026c0,1.853,1.502,3.354,3.352,3.354h29.086V37.214h-7.914v-9.167h7.914   v-6.76c0-7.843,4.789-12.116,11.787-12.116c3.355,0,6.232,0.251,7.071,0.36v8.198l-4.854,0.002c-3.805,0-4.539,1.809-4.539,4.462   v5.851h9.078l-1.187,9.166h-7.892v23.52h15.475c1.852,0,3.355-1.503,3.355-3.351V3.351C60.731,1.5,59.23,0.001,57.378,0.001z"
   id="path2" />
</g>
<g
   id="g6">
</g>
<g
   id="g8">
</g>
<g
   id="g10">
</g>
<g
   id="g12">
</g>
<g
   id="g14">
</g>
<g
   id="g16">
</g>
<g
   id="g18">
</g>
<g
   id="g20">
</g>
<g
   id="g22">
</g>
<g
   id="g24">
</g>
<g
   id="g26">
</g>
<g
   id="g28">
</g>
<g
   id="g30">
</g>
<g
   id="g32">
</g>
<g
   id="g34">
</g>
<path
   style="fill:#ffff00;stroke:#000000;stroke-width:0.25734323;stroke-opacity:1"
   d="M 1.8448051,60.136465 C 0.07545014,59.057563 0.20637431,61.430636 0.20637431,30.439018 0.20637431,4.4922899 0.23882809,2.3662955 0.64541794,1.6779938 1.5924766,0.07475131 0.03337952,0.15431251 30.483096,0.15536791 c 27.383594,9.4911e-4 27.765551,0.007897 28.606029,0.52032137 1.673443,1.02027052 1.592908,-0.48517703 1.592908,29.77663072 0,26.126184 -0.02322,27.526978 -0.470236,28.360474 -0.944326,1.760799 -1.263462,1.81727 -10.269829,1.81727 H 41.895977 V 48.920948 37.211831 h 3.968372 3.968374 l 0.143657,-0.707694 c 0.07901,-0.389232 0.31937,-2.15525 0.534131,-3.924484 0.21476,-1.769235 0.445932,-3.535253 0.513714,-3.924485 l 0.123241,-0.707693 H 46.48434 41.821211 l 0.137869,-3.889696 c 0.116911,-3.298421 0.213392,-3.992781 0.634699,-4.567842 0.949154,-1.295546 1.941034,-1.578009 5.542771,-1.578448 l 3.281127,-4e-4 V 13.683443 9.4557972 L 50.047851,9.2846487 C 49.294448,9.1905172 46.891506,9.159319 44.707979,9.2153197 41.335744,9.3018068 40.513864,9.4055442 39.249894,9.9042378 36.388637,11.033135 34.286042,13.194902 33.15015,16.17565 c -0.552051,1.448657 -0.62264,2.1069 -0.717358,6.689296 l -0.105057,5.082529 h -3.965549 -3.965548 v 4.632178 4.632178 h 3.98882 3.98882 v 11.709117 11.709116 l -14.861572,-10e-4 C 3.3368252,60.628006 2.6139321,60.605385 1.8448051,60.136398 Z"
   id="path4551"
   inkscape:connector-curvature="0" /></svg>