<?xml version="1.0" encoding="UTF-8" standalone="no"?>
<!-- Generator: Adobe Illustrator 16.0.0, SVG Export Plug-In . SVG Version: 6.00 Build 0)  -->

<svg
   xmlns:dc="http://purl.org/dc/elements/1.1/"
   xmlns:cc="http://creativecommons.org/ns#"
   xmlns:rdf="http://www.w3.org/1999/02/22-rdf-syntax-ns#"
   xmlns:svg="http://www.w3.org/2000/svg"
   xmlns="http://www.w3.org/2000/svg"
   xmlns:xlink="http://www.w3.org/1999/xlink"
   xmlns:sodipodi="http://sodipodi.sourceforge.net/DTD/sodipodi-0.dtd"
   xmlns:inkscape="http://www.inkscape.org/namespaces/inkscape"
   version="1.1"
   id="Capa_1"
   x="0px"
   y="0px"
   width="512px"
   height="512px"
   viewBox="0 0 49.652 49.652"
   style="enable-background:new 0 0 49.652 49.652;"
   xml:space="preserve"
   sodipodi:docname="facebook-logo-yellow.svg"
   inkscape:version="0.92.4 (33fec40, 2019-01-16)"><metadata
   id="metadata43"><rdf:RDF><cc:Work
       rdf:about=""><dc:format>image/svg+xml</dc:format><dc:type
         rdf:resource="http://purl.org/dc/dcmitype/StillImage" /><dc:title></dc:title></cc:Work></rdf:RDF></metadata><defs
   id="defs41"><linearGradient
     inkscape:collect="always"
     id="linearGradient886"><stop
       style="stop-color:#000000;stop-opacity:1;"
       offset="0"
       id="stop882" /><stop
       style="stop-color:#000000;stop-opacity:0;"
       offset="1"
       id="stop884" /></linearGradient><linearGradient
     inkscape:collect="always"
     xlink:href="#linearGradient886"
     id="linearGradient888"
     x1="-0.5"
     y1="24.826"
     x2="50.152"
     y2="24.826"
     gradientUnits="userSpaceOnUse" /></defs><sodipodi:namedview
   pagecolor="#ffffff"
   bordercolor="#666666"
   borderopacity="1"
   objecttolerance="10"
   gridtolerance="10"
   guidetolerance="10"
   inkscape:pageopacity="0"
   inkscape:pageshadow="2"
   inkscape:window-width="1530"
   inkscape:window-height="836"
   id="namedview39"
   showgrid="false"
   inkscape:zoom="0.4609375"
   inkscape:cx="256"
   inkscape:cy="256"
   inkscape:window-x="70"
   inkscape:window-y="27"
   inkscape:window-maximized="1"
   inkscape:current-layer="Capa_1" />
<g
   id="g6"
   transform="translate(-0.03747516,-0.03587522)"
   style="fill:#ffff00;fill-opacity:1;stroke:#000000;stroke-opacity:1">
	<g
   id="g4"
   style="fill:#ffff00;fill-opacity:1;stroke:#000000;stroke-opacity:1">
		<path
   d="M 24.826,0 C 11.137,0 0,11.137 0,24.826 0,38.514 11.137,49.652 24.826,49.652 38.514,49.652 49.652,38.514 49.652,24.826 49.652,11.137 38.516,0 24.826,0 Z M 31,25.7 h -4.039 c 0,6.453 0,14.396 0,14.396 h -5.985 c 0,0 0,-7.866 0,-14.396 h -2.845 v -5.088 h 2.845 v -3.291 c 0,-2.357 1.12,-6.04 6.04,-6.04 l 4.435,0.017 v 4.939 c 0,0 -2.695,0 -3.219,0 -0.524,0 -1.269,0.262 -1.269,1.386 v 2.99 h 4.56 z"
   id="path2"
   inkscape:connector-curvature="0"
   style="fill:#ffff00;fill-opacity:1;stroke:#000000;stroke-opacity:1" />
	</g>
</g>
<g
   id="g8">
</g>
<g
   id="g10">
</g>
<g
   id="g12">
</g>
<g
   id="g14">
</g>
<g
   id="g16">
</g>
<g
   id="g18">
</g>
<g
   id="g20">
</g>
<g
   id="g22">
</g>
<g
   id="g24">
</g>
<g
   id="g26">
</g>
<g
   id="g28">
</g>
<g
   id="g30">
</g>
<g
   id="g32">
</g>
<g
   id="g34">
</g>
<g
   id="g36">
</g>
<path
   style="fill:#ffff00;fill-opacity:0;stroke-width:2.16949153"
   d="M 231.05085,510.20095 C 189.54091,505.70917 148.41199,490.5666 111.76501,466.28311 91.963015,453.16168 60.379305,421.53882 45.907504,400.34399 -16.451081,309.0161 -13.320628,188.21976 53.667619,100.90065 134.50805,-4.4747774 285.12304,-29.930715 395.68681,43.094856 515.44402,122.19256 546.76148,280.34321 466.367,400.02415 c -14.1678,21.09119 -45.81239,52.79535 -66.132,66.25651 -29.119,19.29049 -58.66403,32.01592 -90.5377,38.99583 -18.64754,4.08354 -61.57676,6.77156 -78.64645,4.92446 z m 48.29995,-170.48602 0.57112,-73.13931 20.01707,-0.6234 20.01708,-0.62341 1.36736,-9.76271 c 0.75208,-5.36949 2.0656,-17.32881 2.91895,-26.57627 l 1.55155,-16.81356 h -22.96476 -22.96476 v -19.09152 c 0,-11.95631 0.97297,-20.06451 2.60339,-21.69492 1.65285,-1.65284 9.9945,-2.60339 22.84643,-2.60339 h 20.24305 l -0.60915,-26.57627 -0.60915,-26.57627 -31.45762,0.23684 c -27.57225,0.20757 -32.86635,0.84432 -42.86326,5.1553 -23.61049,10.18161 -32.95804,27.79817 -34.68938,65.3762 l -1.1875,25.77403 h -13.78247 -13.78248 v 27.11865 27.11864 h 14.1017 14.10169 v 73.8207 73.82073 l 32,-0.60039 32,-0.60036 z"
   id="path850"
   inkscape:connector-curvature="0"
   transform="scale(0.09697656)" /><path
   style="fill:#ffff00;fill-opacity:0;stroke-width:2.16949153"
   d="M 231.05085,510.20095 C 189.54091,505.70917 148.41199,490.5666 111.76501,466.28311 91.963015,453.16168 60.379305,421.53882 45.907504,400.34399 -16.451081,309.0161 -13.320628,188.21976 53.667619,100.90065 134.50805,-4.4747774 285.12304,-29.930715 395.68681,43.094856 515.44402,122.19256 546.76148,280.34321 466.367,400.02415 c -14.1678,21.09119 -45.81239,52.79535 -66.132,66.25651 -29.119,19.29049 -58.66403,32.01592 -90.5377,38.99583 -18.64754,4.08354 -61.57676,6.77156 -78.64645,4.92446 z m 48.29995,-170.48602 0.57112,-73.13931 20.01707,-0.6234 20.01708,-0.62341 1.36736,-9.76271 c 0.75208,-5.36949 2.0656,-17.32881 2.91895,-26.57627 l 1.55155,-16.81356 h -22.96476 -22.96476 v -19.09152 c 0,-11.95631 0.97297,-20.06451 2.60339,-21.69492 1.65285,-1.65284 9.9945,-2.60339 22.84643,-2.60339 h 20.24305 l -0.60915,-26.57627 -0.60915,-26.57627 -31.45762,0.23684 c -27.57225,0.20757 -32.86635,0.84432 -42.86326,5.1553 -23.61049,10.18161 -32.95804,27.79817 -34.68938,65.3762 l -1.1875,25.77403 h -13.78247 -13.78248 v 27.11865 27.11864 h 14.1017 14.10169 v 73.8207 73.82073 l 32,-0.60039 32,-0.60036 z"
   id="path852"
   inkscape:connector-curvature="0"
   transform="scale(0.09697656)" /><path
   style="fill:#ffff00;fill-opacity:0;stroke-width:2.16949153"
   d="M 231.05085,510.20095 C 189.54091,505.70917 148.41199,490.5666 111.76501,466.28311 91.963015,453.16168 60.379305,421.53882 45.907504,400.34399 -16.451081,309.0161 -13.320628,188.21976 53.667619,100.90065 134.50805,-4.4747774 285.12304,-29.930715 395.68681,43.094856 515.44402,122.19256 546.76148,280.34321 466.367,400.02415 c -14.1678,21.09119 -45.81239,52.79535 -66.132,66.25651 -29.119,19.29049 -58.66403,32.01592 -90.5377,38.99583 -18.64754,4.08354 -61.57676,6.77156 -78.64645,4.92446 z m 48.29995,-170.48602 0.57112,-73.13931 20.01707,-0.6234 20.01708,-0.62341 1.36736,-9.76271 c 0.75208,-5.36949 2.0656,-17.32881 2.91895,-26.57627 l 1.55155,-16.81356 h -22.96476 -22.96476 v -19.09152 c 0,-11.95631 0.97297,-20.06451 2.60339,-21.69492 1.65285,-1.65284 9.9945,-2.60339 22.84643,-2.60339 h 20.24305 l -0.60915,-26.57627 -0.60915,-26.57627 -31.45762,0.23684 c -27.57225,0.20757 -32.86635,0.84432 -42.86326,5.1553 -23.61049,10.18161 -32.95804,27.79817 -34.68938,65.3762 l -1.1875,25.77403 h -13.78247 -13.78248 v 27.11865 27.11864 h 14.1017 14.10169 v 73.8207 73.82073 l 32,-0.60039 32,-0.60036 z"
   id="path854"
   inkscape:connector-curvature="0"
   transform="scale(0.09697656)" /><path
   style="fill:#ffff00;fill-opacity:0;stroke-width:2.16949153"
   d="M 231.05085,510.20095 C 189.54091,505.70917 148.41199,490.5666 111.76501,466.28311 91.963015,453.16168 60.379305,421.53882 45.907504,400.34399 -16.451081,309.0161 -13.320628,188.21976 53.667619,100.90065 134.50805,-4.4747774 285.12304,-29.930715 395.68681,43.094856 515.44402,122.19256 546.76148,280.34321 466.367,400.02415 c -14.1678,21.09119 -45.81239,52.79535 -66.132,66.25651 -29.119,19.29049 -58.66403,32.01592 -90.5377,38.99583 -18.64754,4.08354 -61.57676,6.77156 -78.64645,4.92446 z m 48.29995,-170.48602 0.57112,-73.13931 20.01707,-0.6234 20.01708,-0.62341 1.36736,-9.76271 c 0.75208,-5.36949 2.0656,-17.32881 2.91895,-26.57627 l 1.55155,-16.81356 h -22.96476 -22.96476 v -19.09152 c 0,-11.95631 0.97297,-20.06451 2.60339,-21.69492 1.65285,-1.65284 9.9945,-2.60339 22.84643,-2.60339 h 20.24305 l -0.60915,-26.57627 -0.60915,-26.57627 -31.45762,0.23684 c -27.57225,0.20757 -32.86635,0.84432 -42.86326,5.1553 -23.61049,10.18161 -32.95804,27.79817 -34.68938,65.3762 l -1.1875,25.77403 h -13.78247 -13.78248 v 27.11865 27.11864 h 14.1017 14.10169 v 73.8207 73.82073 l 32,-0.60039 32,-0.60036 z"
   id="path856"
   inkscape:connector-curvature="0"
   transform="scale(0.09697656)" /><path
   style="fill:#ffff00;fill-opacity:0;stroke-width:2.16949153"
   d="M 231.05085,510.20095 C 189.54091,505.70917 148.41199,490.5666 111.76501,466.28311 91.963015,453.16168 60.379305,421.53882 45.907504,400.34399 -16.451081,309.0161 -13.320628,188.21976 53.667619,100.90065 134.50805,-4.4747774 285.12304,-29.930715 395.68681,43.094856 515.44402,122.19256 546.76148,280.34321 466.367,400.02415 c -14.1678,21.09119 -45.81239,52.79535 -66.132,66.25651 -29.119,19.29049 -58.66403,32.01592 -90.5377,38.99583 -18.64754,4.08354 -61.57676,6.77156 -78.64645,4.92446 z m 48.29995,-170.48602 0.57112,-73.13931 20.01707,-0.6234 20.01708,-0.62341 1.36736,-9.76271 c 0.75208,-5.36949 2.0656,-17.32881 2.91895,-26.57627 l 1.55155,-16.81356 h -22.96476 -22.96476 v -19.09152 c 0,-11.95631 0.97297,-20.06451 2.60339,-21.69492 1.65285,-1.65284 9.9945,-2.60339 22.84643,-2.60339 h 20.24305 l -0.60915,-26.57627 -0.60915,-26.57627 -31.45762,0.23684 c -27.57225,0.20757 -32.86635,0.84432 -42.86326,5.1553 -23.61049,10.18161 -32.95804,27.79817 -34.68938,65.3762 l -1.1875,25.77403 h -13.78247 -13.78248 v 27.11865 27.11864 h 14.1017 14.10169 v 73.8207 73.82073 l 32,-0.60039 32,-0.60036 z"
   id="path858"
   inkscape:connector-curvature="0"
   transform="scale(0.09697656)" /><path
   style="fill:#803300;fill-opacity:0;stroke-width:2.16949153"
   d="M 231.05085,510.20095 C 189.54091,505.70917 148.41199,490.5666 111.76501,466.28311 91.963015,453.16168 60.379305,421.53882 45.907504,400.34399 -16.451081,309.0161 -13.320628,188.21976 53.667619,100.90065 134.50805,-4.4747774 285.12304,-29.930715 395.68681,43.094856 515.44402,122.19256 546.76148,280.34321 466.367,400.02415 c -14.1678,21.09119 -45.81239,52.79535 -66.132,66.25651 -29.119,19.29049 -58.66403,32.01592 -90.5377,38.99583 -18.64754,4.08354 -61.57676,6.77156 -78.64645,4.92446 z m 48.29995,-170.48602 0.57112,-73.13931 20.01707,-0.6234 20.01708,-0.62341 1.36736,-9.76271 c 0.75208,-5.36949 2.0656,-17.32881 2.91895,-26.57627 l 1.55155,-16.81356 h -22.96476 -22.96476 v -19.09152 c 0,-11.95631 0.97297,-20.06451 2.60339,-21.69492 1.65285,-1.65284 9.9945,-2.60339 22.84643,-2.60339 h 20.24305 l -0.60915,-26.57627 -0.60915,-26.57627 -31.45762,0.23684 c -27.57225,0.20757 -32.86635,0.84432 -42.86326,5.1553 -23.61049,10.18161 -32.95804,27.79817 -34.68938,65.3762 l -1.1875,25.77403 h -13.78247 -13.78248 v 27.11865 27.11864 h 14.1017 14.10169 v 73.8207 73.82073 l 32,-0.60039 32,-0.60036 z"
   id="path860"
   inkscape:connector-curvature="0"
   transform="scale(0.09697656)" /><path
   style="fill:#803300;fill-opacity:0;stroke-width:2.16949153"
   d="M 231.05085,510.20095 C 189.54091,505.70917 148.41199,490.5666 111.76501,466.28311 91.963015,453.16168 60.379305,421.53882 45.907504,400.34399 -16.451081,309.0161 -13.320628,188.21976 53.667619,100.90065 134.50805,-4.4747774 285.12304,-29.930715 395.68681,43.094856 515.44402,122.19256 546.76148,280.34321 466.367,400.02415 c -14.1678,21.09119 -45.81239,52.79535 -66.132,66.25651 -29.119,19.29049 -58.66403,32.01592 -90.5377,38.99583 -18.64754,4.08354 -61.57676,6.77156 -78.64645,4.92446 z m 48.29995,-170.48602 0.57112,-73.13931 20.01707,-0.6234 20.01708,-0.62341 1.36736,-9.76271 c 0.75208,-5.36949 2.0656,-17.32881 2.91895,-26.57627 l 1.55155,-16.81356 h -22.96476 -22.96476 v -19.09152 c 0,-11.95631 0.97297,-20.06451 2.60339,-21.69492 1.65285,-1.65284 9.9945,-2.60339 22.84643,-2.60339 h 20.24305 l -0.60915,-26.57627 -0.60915,-26.57627 -31.45762,0.23684 c -27.57225,0.20757 -32.86635,0.84432 -42.86326,5.1553 -23.61049,10.18161 -32.95804,27.79817 -34.68938,65.3762 l -1.1875,25.77403 h -13.78247 -13.78248 v 27.11865 27.11864 h 14.1017 14.10169 v 73.8207 73.82073 l 32,-0.60039 32,-0.60036 z"
   id="path862"
   inkscape:connector-curvature="0"
   transform="scale(0.09697656)" /><path
   style="fill:#803300;fill-opacity:0;stroke-width:2.16949153"
   d="M 231.05085,510.20095 C 189.54091,505.70917 148.41199,490.5666 111.76501,466.28311 91.963015,453.16168 60.379305,421.53882 45.907504,400.34399 -16.451081,309.0161 -13.320628,188.21976 53.667619,100.90065 134.50805,-4.4747774 285.12304,-29.930715 395.68681,43.094856 515.44402,122.19256 546.76148,280.34321 466.367,400.02415 c -14.1678,21.09119 -45.81239,52.79535 -66.132,66.25651 -29.119,19.29049 -58.66403,32.01592 -90.5377,38.99583 -18.64754,4.08354 -61.57676,6.77156 -78.64645,4.92446 z m 48.29995,-170.48602 0.57112,-73.13931 20.01707,-0.6234 20.01708,-0.62341 1.36736,-9.76271 c 0.75208,-5.36949 2.0656,-17.32881 2.91895,-26.57627 l 1.55155,-16.81356 h -22.96476 -22.96476 v -19.09152 c 0,-11.95631 0.97297,-20.06451 2.60339,-21.69492 1.65285,-1.65284 9.9945,-2.60339 22.84643,-2.60339 h 20.24305 l -0.60915,-26.57627 -0.60915,-26.57627 -31.45762,0.23684 c -27.57225,0.20757 -32.86635,0.84432 -42.86326,5.1553 -23.61049,10.18161 -32.95804,27.79817 -34.68938,65.3762 l -1.1875,25.77403 h -13.78247 -13.78248 v 27.11865 27.11864 h 14.1017 14.10169 v 73.8207 73.82073 l 32,-0.60039 32,-0.60036 z"
   id="path864"
   inkscape:connector-curvature="0"
   transform="scale(0.09697656)" /><path
   style="fill:#803300;fill-opacity:0;stroke-width:2.16949153"
   d="M 231.05085,510.20095 C 189.54091,505.70917 148.41199,490.5666 111.76501,466.28311 91.963015,453.16168 60.379305,421.53882 45.907504,400.34399 -16.451081,309.0161 -13.320628,188.21976 53.667619,100.90065 134.50805,-4.4747774 285.12304,-29.930715 395.68681,43.094856 515.44402,122.19256 546.76148,280.34321 466.367,400.02415 c -14.1678,21.09119 -45.81239,52.79535 -66.132,66.25651 -29.119,19.29049 -58.66403,32.01592 -90.5377,38.99583 -18.64754,4.08354 -61.57676,6.77156 -78.64645,4.92446 z m 48.29995,-170.48602 0.57112,-73.13931 20.01707,-0.6234 20.01708,-0.62341 1.36736,-9.76271 c 0.75208,-5.36949 2.0656,-17.32881 2.91895,-26.57627 l 1.55155,-16.81356 h -22.96476 -22.96476 v -19.09152 c 0,-11.95631 0.97297,-20.06451 2.60339,-21.69492 1.65285,-1.65284 9.9945,-2.60339 22.84643,-2.60339 h 20.24305 l -0.60915,-26.57627 -0.60915,-26.57627 -31.45762,0.23684 c -27.57225,0.20757 -32.86635,0.84432 -42.86326,5.1553 -23.61049,10.18161 -32.95804,27.79817 -34.68938,65.3762 l -1.1875,25.77403 h -13.78247 -13.78248 v 27.11865 27.11864 h 14.1017 14.10169 v 73.8207 73.82073 l 32,-0.60039 32,-0.60036 z"
   id="path866"
   inkscape:connector-curvature="0"
   transform="scale(0.09697656)" /><path
   style="fill:#803300;fill-opacity:0;stroke-width:2.16949153"
   d="M 231.05085,510.20095 C 189.54091,505.70917 148.41199,490.5666 111.76501,466.28311 91.963015,453.16168 60.379305,421.53882 45.907504,400.34399 -16.451081,309.0161 -13.320628,188.21976 53.667619,100.90065 134.50805,-4.4747774 285.12304,-29.930715 395.68681,43.094856 515.44402,122.19256 546.76148,280.34321 466.367,400.02415 c -14.1678,21.09119 -45.81239,52.79535 -66.132,66.25651 -29.119,19.29049 -58.66403,32.01592 -90.5377,38.99583 -18.64754,4.08354 -61.57676,6.77156 -78.64645,4.92446 z m 48.29995,-170.48602 0.57112,-73.13931 20.01707,-0.6234 20.01708,-0.62341 1.36736,-9.76271 c 0.75208,-5.36949 2.0656,-17.32881 2.91895,-26.57627 l 1.55155,-16.81356 h -22.96476 -22.96476 v -19.09152 c 0,-11.95631 0.97297,-20.06451 2.60339,-21.69492 1.65285,-1.65284 9.9945,-2.60339 22.84643,-2.60339 h 20.24305 l -0.60915,-26.57627 -0.60915,-26.57627 -31.45762,0.23684 c -27.57225,0.20757 -32.86635,0.84432 -42.86326,5.1553 -23.61049,10.18161 -32.95804,27.79817 -34.68938,65.3762 l -1.1875,25.77403 h -13.78247 -13.78248 v 27.11865 27.11864 h 14.1017 14.10169 v 73.8207 73.82073 l 32,-0.60039 32,-0.60036 z"
   id="path868"
   inkscape:connector-curvature="0"
   transform="scale(0.09697656)" /><path
   style="fill:#803300;fill-opacity:0;stroke-width:2.16949153"
   d="M 231.05085,510.20095 C 189.54091,505.70917 148.41199,490.5666 111.76501,466.28311 91.963015,453.16168 60.379305,421.53882 45.907504,400.34399 -16.451081,309.0161 -13.320628,188.21976 53.667619,100.90065 134.50805,-4.4747774 285.12304,-29.930715 395.68681,43.094856 515.44402,122.19256 546.76148,280.34321 466.367,400.02415 c -14.1678,21.09119 -45.81239,52.79535 -66.132,66.25651 -29.119,19.29049 -58.66403,32.01592 -90.5377,38.99583 -18.64754,4.08354 -61.57676,6.77156 -78.64645,4.92446 z m 48.29995,-170.48602 0.57112,-73.13931 20.01707,-0.6234 20.01708,-0.62341 1.36736,-9.76271 c 0.75208,-5.36949 2.0656,-17.32881 2.91895,-26.57627 l 1.55155,-16.81356 h -22.96476 -22.96476 v -19.09152 c 0,-11.95631 0.97297,-20.06451 2.60339,-21.69492 1.65285,-1.65284 9.9945,-2.60339 22.84643,-2.60339 h 20.24305 l -0.60915,-26.57627 -0.60915,-26.57627 -31.45762,0.23684 c -27.57225,0.20757 -32.86635,0.84432 -42.86326,5.1553 -23.61049,10.18161 -32.95804,27.79817 -34.68938,65.3762 l -1.1875,25.77403 h -13.78247 -13.78248 v 27.11865 27.11864 h 14.1017 14.10169 v 73.8207 73.82073 l 32,-0.60039 32,-0.60036 z"
   id="path870"
   inkscape:connector-curvature="0"
   transform="scale(0.09697656)" /><path
   style="fill:#803300;fill-opacity:0;stroke-width:2.16949153"
   d="M 231.05085,510.20095 C 189.54091,505.70917 148.41199,490.5666 111.76501,466.28311 91.963015,453.16168 60.379305,421.53882 45.907504,400.34399 -16.451081,309.0161 -13.320628,188.21976 53.667619,100.90065 134.50805,-4.4747774 285.12304,-29.930715 395.68681,43.094856 515.44402,122.19256 546.76148,280.34321 466.367,400.02415 c -14.1678,21.09119 -45.81239,52.79535 -66.132,66.25651 -29.119,19.29049 -58.66403,32.01592 -90.5377,38.99583 -18.64754,4.08354 -61.57676,6.77156 -78.64645,4.92446 z m 48.29995,-170.48602 0.57112,-73.13931 20.01707,-0.6234 20.01708,-0.62341 1.36736,-9.76271 c 0.75208,-5.36949 2.0656,-17.32881 2.91895,-26.57627 l 1.55155,-16.81356 h -22.96476 -22.96476 v -19.09152 c 0,-11.95631 0.97297,-20.06451 2.60339,-21.69492 1.65285,-1.65284 9.9945,-2.60339 22.84643,-2.60339 h 20.24305 l -0.60915,-26.57627 -0.60915,-26.57627 -31.45762,0.23684 c -27.57225,0.20757 -32.86635,0.84432 -42.86326,5.1553 -23.61049,10.18161 -32.95804,27.79817 -34.68938,65.3762 l -1.1875,25.77403 h -13.78247 -13.78248 v 27.11865 27.11864 h 14.1017 14.10169 v 73.8207 73.82073 l 32,-0.60039 32,-0.60036 z"
   id="path872"
   inkscape:connector-curvature="0"
   transform="scale(0.09697656)" /><path
   style="fill:#803300;fill-opacity:0;stroke-width:2.16949153"
   d="M 231.05085,510.20095 C 189.54091,505.70917 148.41199,490.5666 111.76501,466.28311 91.963015,453.16168 60.379305,421.53882 45.907504,400.34399 -16.451081,309.0161 -13.320628,188.21976 53.667619,100.90065 134.50805,-4.4747774 285.12304,-29.930715 395.68681,43.094856 515.44402,122.19256 546.76148,280.34321 466.367,400.02415 c -14.1678,21.09119 -45.81239,52.79535 -66.132,66.25651 -29.119,19.29049 -58.66403,32.01592 -90.5377,38.99583 -18.64754,4.08354 -61.57676,6.77156 -78.64645,4.92446 z m 48.29995,-170.48602 0.57112,-73.13931 20.01707,-0.6234 20.01708,-0.62341 1.36736,-9.76271 c 0.75208,-5.36949 2.0656,-17.32881 2.91895,-26.57627 l 1.55155,-16.81356 h -22.96476 -22.96476 v -19.09152 c 0,-11.95631 0.97297,-20.06451 2.60339,-21.69492 1.65285,-1.65284 9.9945,-2.60339 22.84643,-2.60339 h 20.24305 l -0.60915,-26.57627 -0.60915,-26.57627 -31.45762,0.23684 c -27.57225,0.20757 -32.86635,0.84432 -42.86326,5.1553 -23.61049,10.18161 -32.95804,27.79817 -34.68938,65.3762 l -1.1875,25.77403 h -13.78247 -13.78248 v 27.11865 27.11864 h 14.1017 14.10169 v 73.8207 73.82073 l 32,-0.60039 32,-0.60036 z"
   id="path874"
   inkscape:connector-curvature="0"
   transform="scale(0.09697656)" /><path
   style="fill:#800080;fill-opacity:0;stroke-width:2.16949153"
   d="M 231.05085,510.20095 C 189.54091,505.70917 148.41199,490.5666 111.76501,466.28311 91.963015,453.16168 60.379305,421.53882 45.907504,400.34399 -16.451081,309.0161 -13.320628,188.21976 53.667619,100.90065 134.50805,-4.4747774 285.12304,-29.930715 395.68681,43.094856 515.44402,122.19256 546.76148,280.34321 466.367,400.02415 c -14.1678,21.09119 -45.81239,52.79535 -66.132,66.25651 -29.119,19.29049 -58.66403,32.01592 -90.5377,38.99583 -18.64754,4.08354 -61.57676,6.77156 -78.64645,4.92446 z m 48.29995,-170.48602 0.57112,-73.13931 20.01707,-0.6234 20.01708,-0.62341 1.36736,-9.76271 c 0.75208,-5.36949 2.0656,-17.32881 2.91895,-26.57627 l 1.55155,-16.81356 h -22.96476 -22.96476 v -19.09152 c 0,-11.95631 0.97297,-20.06451 2.60339,-21.69492 1.65285,-1.65284 9.9945,-2.60339 22.84643,-2.60339 h 20.24305 l -0.60915,-26.57627 -0.60915,-26.57627 -31.45762,0.23684 c -27.57225,0.20757 -32.86635,0.84432 -42.86326,5.1553 -23.61049,10.18161 -32.95804,27.79817 -34.68938,65.3762 l -1.1875,25.77403 h -13.78247 -13.78248 v 27.11865 27.11864 h 14.1017 14.10169 v 73.8207 73.82073 l 32,-0.60039 32,-0.60036 z"
   id="path876"
   inkscape:connector-curvature="0"
   transform="scale(0.09697656)" /><path
   style="fill:#800080;fill-opacity:0;stroke-width:2.16949153"
   d="M 231.05085,510.20095 C 189.54091,505.70917 148.41199,490.5666 111.76501,466.28311 91.963015,453.16168 60.379305,421.53882 45.907504,400.34399 -16.451081,309.0161 -13.320628,188.21976 53.667619,100.90065 134.50805,-4.4747774 285.12304,-29.930715 395.68681,43.094856 515.44402,122.19256 546.76148,280.34321 466.367,400.02415 c -14.1678,21.09119 -45.81239,52.79535 -66.132,66.25651 -29.119,19.29049 -58.66403,32.01592 -90.5377,38.99583 -18.64754,4.08354 -61.57676,6.77156 -78.64645,4.92446 z m 48.29995,-170.48602 0.57112,-73.13931 20.01707,-0.6234 20.01708,-0.62341 1.36736,-9.76271 c 0.75208,-5.36949 2.0656,-17.32881 2.91895,-26.57627 l 1.55155,-16.81356 h -22.96476 -22.96476 v -19.09152 c 0,-11.95631 0.97297,-20.06451 2.60339,-21.69492 1.65285,-1.65284 9.9945,-2.60339 22.84643,-2.60339 h 20.24305 l -0.60915,-26.57627 -0.60915,-26.57627 -31.45762,0.23684 c -27.57225,0.20757 -32.86635,0.84432 -42.86326,5.1553 -23.61049,10.18161 -32.95804,27.79817 -34.68938,65.3762 l -1.1875,25.77403 h -13.78247 -13.78248 v 27.11865 27.11864 h 14.1017 14.10169 v 73.8207 73.82073 l 32,-0.60039 32,-0.60036 z"
   id="path878"
   inkscape:connector-curvature="0"
   transform="scale(0.09697656)" /><path
   style="fill:#800080;fill-opacity:0;stroke-width:2.16949153"
   d="M 231.05085,510.20095 C 189.54091,505.70917 148.41199,490.5666 111.76501,466.28311 91.963015,453.16168 60.379305,421.53882 45.907504,400.34399 -16.451081,309.0161 -13.320628,188.21976 53.667619,100.90065 134.50805,-4.4747774 285.12304,-29.930715 395.68681,43.094856 515.44402,122.19256 546.76148,280.34321 466.367,400.02415 c -14.1678,21.09119 -45.81239,52.79535 -66.132,66.25651 -29.119,19.29049 -58.66403,32.01592 -90.5377,38.99583 -18.64754,4.08354 -61.57676,6.77156 -78.64645,4.92446 z m 48.29995,-170.48602 0.57112,-73.13931 20.01707,-0.6234 20.01708,-0.62341 1.36736,-9.76271 c 0.75208,-5.36949 2.0656,-17.32881 2.91895,-26.57627 l 1.55155,-16.81356 h -22.96476 -22.96476 v -19.09152 c 0,-11.95631 0.97297,-20.06451 2.60339,-21.69492 1.65285,-1.65284 9.9945,-2.60339 22.84643,-2.60339 h 20.24305 l -0.60915,-26.57627 -0.60915,-26.57627 -31.45762,0.23684 c -27.57225,0.20757 -32.86635,0.84432 -42.86326,5.1553 -23.61049,10.18161 -32.95804,27.79817 -34.68938,65.3762 l -1.1875,25.77403 h -13.78247 -13.78248 v 27.11865 27.11864 h 14.1017 14.10169 v 73.8207 73.82073 l 32,-0.60039 32,-0.60036 z"
   id="path880"
   inkscape:connector-curvature="0"
   transform="scale(0.09697656)" /></svg>