<?xml version="1.0" encoding="UTF-8" standalone="no"?>
<!-- Generator: Adobe Illustrator 16.0.0, SVG Export Plug-In . SVG Version: 6.00 Build 0)  -->

<svg
   xmlns:dc="http://purl.org/dc/elements/1.1/"
   xmlns:cc="http://creativecommons.org/ns#"
   xmlns:rdf="http://www.w3.org/1999/02/22-rdf-syntax-ns#"
   xmlns:svg="http://www.w3.org/2000/svg"
   xmlns="http://www.w3.org/2000/svg"
   xmlns:sodipodi="http://sodipodi.sourceforge.net/DTD/sodipodi-0.dtd"
   xmlns:inkscape="http://www.inkscape.org/namespaces/inkscape"
   version="1.1"
   id="Capa_1"
   x="0px"
   y="0px"
   width="438.549px"
   height="438.549px"
   viewBox="0 0 438.549 438.549"
   style="enable-background:new 0 0 438.549 438.549;"
   xml:space="preserve"
   sodipodi:docname="github-logo-yelloww.svg"
   inkscape:version="0.92.4 (33fec40, 2019-01-16)"><metadata
   id="metadata3847"><rdf:RDF><cc:Work
       rdf:about=""><dc:format>image/svg+xml</dc:format><dc:type
         rdf:resource="http://purl.org/dc/dcmitype/StillImage" /><dc:title></dc:title></cc:Work></rdf:RDF></metadata><defs
   id="defs3845" /><sodipodi:namedview
   pagecolor="#ffffff"
   bordercolor="#666666"
   borderopacity="1"
   objecttolerance="10"
   gridtolerance="10"
   guidetolerance="10"
   inkscape:pageopacity="0"
   inkscape:pageshadow="2"
   inkscape:window-width="1530"
   inkscape:window-height="836"
   id="namedview3843"
   showgrid="false"
   inkscape:zoom="1.4912814"
   inkscape:cx="107.96084"
   inkscape:cy="219.27451"
   inkscape:window-x="70"
   inkscape:window-y="27"
   inkscape:window-maximized="1"
   inkscape:current-layer="Capa_1" />
<g
   id="g3810">
	<path
   style="color: yellow;"
   d="M409.132,114.573c-19.608-33.596-46.205-60.194-79.798-79.8C295.736,15.166,259.057,5.365,219.271,5.365   c-39.781,0-76.472,9.804-110.063,29.408c-33.596,19.605-60.192,46.204-79.8,79.8C9.803,148.168,0,184.854,0,224.63   c0,47.78,13.94,90.745,41.827,128.906c27.884,38.164,63.906,64.572,108.063,79.227c5.14,0.954,8.945,0.283,11.419-1.996   c2.475-2.282,3.711-5.14,3.711-8.562c0-0.571-0.049-5.708-0.144-15.417c-0.098-9.709-0.144-18.179-0.144-25.406l-6.567,1.136   c-4.187,0.767-9.469,1.092-15.846,1c-6.374-0.089-12.991-0.757-19.842-1.999c-6.854-1.231-13.229-4.086-19.13-8.559   c-5.898-4.473-10.085-10.328-12.56-17.556l-2.855-6.57c-1.903-4.374-4.899-9.233-8.992-14.559   c-4.093-5.331-8.232-8.945-12.419-10.848l-1.999-1.431c-1.332-0.951-2.568-2.098-3.711-3.429c-1.142-1.331-1.997-2.663-2.568-3.997   c-0.572-1.335-0.098-2.43,1.427-3.289c1.525-0.859,4.281-1.276,8.28-1.276l5.708,0.853c3.807,0.763,8.516,3.042,14.133,6.851   c5.614,3.806,10.229,8.754,13.846,14.842c4.38,7.806,9.657,13.754,15.846,17.847c6.184,4.093,12.419,6.136,18.699,6.136   c6.28,0,11.704-0.476,16.274-1.423c4.565-0.952,8.848-2.383,12.847-4.285c1.713-12.758,6.377-22.559,13.988-29.41   c-10.848-1.14-20.601-2.857-29.264-5.14c-8.658-2.286-17.605-5.996-26.835-11.14c-9.235-5.137-16.896-11.516-22.985-19.126   c-6.09-7.614-11.088-17.61-14.987-29.979c-3.901-12.374-5.852-26.648-5.852-42.826c0-23.035,7.52-42.637,22.557-58.817   c-7.044-17.318-6.379-36.732,1.997-58.24c5.52-1.715,13.706-0.428,24.554,3.853c10.85,4.283,18.794,7.952,23.84,10.994   c5.046,3.041,9.089,5.618,12.135,7.708c17.705-4.947,35.976-7.421,54.818-7.421s37.117,2.474,54.823,7.421l10.849-6.849   c7.419-4.57,16.18-8.758,26.262-12.565c10.088-3.805,17.802-4.853,23.134-3.138c8.562,21.509,9.325,40.922,2.279,58.24   c15.036,16.18,22.559,35.787,22.559,58.817c0,16.178-1.958,30.497-5.853,42.966c-3.9,12.471-8.941,22.457-15.125,29.979   c-6.191,7.521-13.901,13.85-23.131,18.986c-9.232,5.14-18.182,8.85-26.84,11.136c-8.662,2.286-18.415,4.004-29.263,5.146   c9.894,8.562,14.842,22.077,14.842,40.539v60.237c0,3.422,1.19,6.279,3.572,8.562c2.379,2.279,6.136,2.95,11.276,1.995   c44.163-14.653,80.185-41.062,108.068-79.226c27.88-38.161,41.825-81.126,41.825-128.906   C438.536,184.851,428.728,148.168,409.132,114.573z"
   id="path3808" />
</g>
<g
   id="g3812">
</g>
<g
   id="g3814">
</g>
<g
   id="g3816">
</g>
<g
   id="g3818">
</g>
<g
   id="g3820">
</g>
<g
   id="g3822">
</g>
<g
   id="g3824">
</g>
<g
   id="g3826">
</g>
<g
   id="g3828">
</g>
<g
   id="g3830">
</g>
<g
   id="g3832">
</g>
<g
   id="g3834">
</g>
<g
   id="g3836">
</g>
<g
   id="g3838">
</g>
<g
   id="g3840">
</g>
<path
   style="stroke-width:0.67056423;fill:#ffff00;stroke:#000000;stroke-opacity:1"
   d="M 145.44538,430.79765 C 128.15934,424.86701 107.96562,414.48628 93.361385,404.0235 81.955603,395.85215 76.235912,390.99956 65.924923,380.74637 34.176102,349.17555 13.223676,311.16045 4.9390178,270.09645 -1.5352214,238.00601 -1.0832072,204.0061 6.2241665,173.42924 26.515034,88.524477 96.903681,22.794224 182.6617,8.668532 c 23.28251,-3.8349955 52.07547,-3.72994 75.27797,0.274663 31.08964,5.365873 61.46059,18.179091 88.5807,37.371355 44.87549,31.757326 77.23568,81.74863 87.56522,135.27425 4.96296,25.71708 5.31696,54.61324 0.98578,80.4677 -7.25084,43.28298 -27.57312,82.93827 -59.18841,115.49555 -23.73981,24.44715 -48.82732,40.70221 -81.57232,52.85351 -10.17511,3.77587 -15.36249,3.00511 -18.77579,-2.78978 -1.28671,-2.18449 -1.35617,-3.84163 -1.71167,-40.83433 -0.35308,-36.73981 -0.43828,-38.80074 -1.80746,-43.71847 -1.90121,-6.82869 -4.33125,-11.83545 -8.2701,-17.0394 -3.64014,-4.80929 -3.85731,-4.43418 3.07189,-5.3061 7.81559,-0.98347 21.24432,-3.94643 27.74828,-6.12248 12.54666,-4.19776 26.22732,-11.7164 35.21293,-19.35235 14.92813,-12.68591 25.09651,-34.71653 28.62592,-62.02041 1.26542,-9.78947 1.10271,-29.28215 -0.30436,-36.46126 -3.03866,-15.50374 -9.89001,-29.96305 -18.94952,-39.99164 l -2.12794,-2.35555 1.56749,-4.80811 c 4.47494,-13.72651 3.83756,-30.44462 -1.81419,-47.585 -2.23921,-6.790996 -2.38493,-6.912999 -8.2667,-6.920817 -10.17434,-0.01355 -31.62689,8.602427 -48.64831,19.538547 l -5.66739,3.64126 -6.37036,-1.52857 c -15.91902,-3.81977 -31.20464,-5.57155 -48.61591,-5.57155 -17.57601,0 -33.63961,1.86012 -48.37581,5.60177 l -6.13027,1.55653 -6.27517,-3.96523 c -16.0524,-10.14341 -39.23115,-19.28698 -48.856,-19.272757 -5.5537,0.0082 -5.77299,0.198118 -8.00105,6.929257 -5.604943,16.93297 -6.191975,33.16043 -1.710139,47.27382 l 1.566259,4.93218 -3.08736,3.78601 c -9.576569,11.74371 -15.323694,24.33736 -17.910006,39.24612 -1.215747,7.00816 -1.385896,25.38562 -0.325378,35.14321 1.97577,18.1786 7.892514,35.80616 16.398454,48.85544 12.96608,19.89172 39.06349,34.19333 70.73774,38.76491 12.04222,1.73807 11.16848,1.0516 7.51212,5.90201 -4.11209,5.45496 -7.1532,12.19127 -8.70049,19.2723 l -1.24517,5.69844 -5.32123,1.80873 c -7.05962,2.39962 -12.50916,3.21496 -21.41477,3.204 -5.99897,-0.007 -8.20415,-0.30135 -11.81046,-1.5744 -9.05071,-3.19496 -16.64866,-9.96659 -24.16942,-21.54086 -8.795743,-13.53644 -20.732839,-21.71132 -33.425869,-22.89101 -5.654795,-0.52556 -10.726681,0.98661 -10.726681,3.19813 0,3.23762 3.657886,7.42526 10.058464,11.5152 7.731498,4.94038 15.685724,15.3179 20.773664,27.10247 5.566018,12.89186 8.111675,16.6758 14.421092,21.43592 7.14954,5.39396 12.74063,7.61368 23.14433,9.18854 12.75976,1.93152 21.90321,1.93669 35.03698,0.0198 l 3.18518,-0.46488 v 21.62555 c 0,20.70752 -0.0596,21.73161 -1.40433,24.12421 -3.12152,5.554 -8.10201,6.43796 -17.70675,3.14268 z"
   id="path3849"
   inkscape:connector-curvature="0" /></svg>