<svg width="135" height="40" viewBox="0 0 135 40" fill="none" xmlns="http://www.w3.org/2000/svg">
<g clip-path="url(#clip0)">
<path d="M130 0H5C2.23858 0 0 2.23858 0 5V35C0 37.7614 2.23858 40 5 40H130C132.761 40 135 37.7614 135 35V5C135 2.23858 132.761 0 130 0Z" fill="black"/>
<path d="M130 0.8C131.114 0.8 132.182 1.2425 132.97 2.03015C133.758 2.8178 134.2 3.88609 134.2 5V35C134.2 36.1139 133.758 37.1822 132.97 37.9698C132.182 38.7575 131.114 39.2 130 39.2H5C3.88609 39.2 2.8178 38.7575 2.03015 37.9698C1.2425 37.1822 0.8 36.1139 0.8 35V5C0.8 3.88609 1.2425 2.8178 2.03015 2.03015C2.8178 1.2425 3.88609 0.8 5 0.8H130ZM130 0H5C3.67392 0 2.40215 0.526784 1.46447 1.46447C0.526784 2.40215 0 3.67392 0 5L0 35C0 36.3261 0.526784 37.5979 1.46447 38.5355C2.40215 39.4732 3.67392 40 5 40H130C131.326 40 132.598 39.4732 133.536 38.5355C134.473 37.5979 135 36.3261 135 35V5C135 3.67392 134.473 2.40215 133.536 1.46447C132.598 0.526784 131.326 0 130 0V0Z" fill="#FFFF00"/>
<g clip-path="url(#clip1)">
<path fill-rule="evenodd" clip-rule="evenodd" d="M8.46338 18.7812H12.0427C12.0859 17.5206 12.2411 16.3116 12.4912 15.1875H9.40638C8.87036 16.316 8.55051 17.535 8.46338 18.7812V18.7812ZM10.2416 13.75H12.8794C13.119 12.9864 13.4269 12.246 13.7994 11.5377C14.0479 11.0677 14.335 10.6191 14.6576 10.1965C12.8765 10.9351 11.3441 12.1682 10.2416 13.75V13.75ZM18.5 8C15.45 8 12.5249 9.2116 10.3683 11.3683C8.2116 13.5249 7 16.45 7 19.5C7 22.55 8.2116 25.4751 10.3683 27.6317C12.5249 29.7884 15.45 31 18.5 31C21.55 31 24.4751 29.7884 26.6317 27.6317C28.7884 25.4751 30 22.55 30 19.5C30 16.45 28.7884 13.5249 26.6317 11.3683C24.4751 9.2116 21.55 8 18.5 8V8ZM17.7812 9.54819C16.8181 9.84144 15.8622 10.7269 15.0687 12.2147C14.82 12.6805 14.5943 13.1951 14.3959 13.75H17.7812V9.54819ZM17.7812 15.1875H13.9676C13.6848 16.366 13.522 17.57 13.4817 18.7812H17.7812V15.1875ZM19.2188 18.7812V15.1875H23.0324C23.3012 16.2872 23.4723 17.499 23.5183 18.7812H19.2188ZM17.7812 20.2188H13.4831C13.523 21.4299 13.6853 22.634 13.9676 23.8125H17.7812V20.2188ZM19.2188 23.8125V20.2188H23.5169C23.477 21.4299 23.3147 22.634 23.0324 23.8125H19.2188ZM17.7812 25.25H14.3959C14.5943 25.8049 14.82 26.3195 15.0687 26.7852C15.8622 28.2731 16.8196 29.1571 17.7812 29.4518V25.25ZM14.6576 28.8035C14.3349 28.3809 14.0479 27.9323 13.7994 27.4623C13.4269 26.754 13.119 26.0136 12.8794 25.25H10.2416C11.3441 26.8318 12.8765 28.0649 14.6576 28.8035V28.8035ZM9.40638 23.8125H12.4912C12.2313 22.631 12.0812 21.4279 12.0427 20.2188H8.46338C8.5525 21.4981 8.88169 22.7099 9.40638 23.8125ZM22.3424 28.8035C24.1235 28.0649 25.6559 26.8318 26.7584 25.25H24.1221C23.8819 26.0136 23.5735 26.754 23.2006 27.4623C22.9521 27.9323 22.6651 28.3809 22.3424 28.8035V28.8035ZM22.6041 25.25H19.2188V29.4518C20.1819 29.1586 21.1378 28.2731 21.9313 26.7852C22.1927 26.2906 22.4176 25.7775 22.6041 25.25ZM24.5088 23.8125H27.5936C28.1183 22.7099 28.4475 21.4981 28.5366 20.2188H24.9572C24.9189 21.4279 24.7687 22.631 24.5088 23.8125ZM24.9572 18.7812H28.5366C28.4495 17.535 28.1296 16.316 27.5936 15.1875H24.5088C24.7589 16.3116 24.9141 17.5206 24.9572 18.7812ZM24.1206 13.75C23.881 12.9865 23.5731 12.246 23.2006 11.5377C22.9521 11.0677 22.6651 10.6191 22.3424 10.1965C24.1235 10.9351 25.6559 12.1682 26.7584 13.75H24.1221H24.1206ZM22.6041 13.75H19.2188V9.54819C20.1819 9.84144 21.1378 10.7269 21.9313 12.2147C22.18 12.6805 22.4057 13.1951 22.6041 13.75Z" fill="#FFFF00"/>
</g>
<path d="M36.7715 23.4467H40.8771V25H34.8379V15.6156H36.7715V23.4467ZM45.9109 25C45.825 24.8324 45.7627 24.624 45.724 24.3748C45.2729 24.8775 44.6863 25.1289 43.9645 25.1289C43.2812 25.1289 42.7141 24.9313 42.2629 24.5359C41.816 24.1406 41.5926 23.6422 41.5926 23.0406C41.5926 22.3016 41.8654 21.7344 42.4111 21.3391C42.9611 20.9438 43.7539 20.7439 44.7895 20.7396H45.6467V20.34C45.6467 20.0178 45.5629 19.76 45.3953 19.5666C45.232 19.3732 44.9721 19.2766 44.6154 19.2766C44.3018 19.2766 44.0547 19.3518 43.8742 19.5021C43.698 19.6525 43.61 19.8588 43.61 20.1209H41.7473C41.7473 19.717 41.8719 19.3432 42.1211 18.9994C42.3703 18.6557 42.7227 18.3871 43.1781 18.1938C43.6336 17.9961 44.1449 17.8973 44.7121 17.8973C45.5715 17.8973 46.2525 18.1143 46.7553 18.5482C47.2623 18.9779 47.5158 19.5838 47.5158 20.3658V23.3887C47.5201 24.0504 47.6125 24.551 47.793 24.8904V25H45.9109ZM44.3705 23.7045C44.6455 23.7045 44.899 23.6443 45.1311 23.524C45.3631 23.3994 45.535 23.234 45.6467 23.0277V21.8289H44.9506C44.0182 21.8289 43.5219 22.1512 43.4617 22.7957L43.4553 22.9053C43.4553 23.1373 43.5369 23.3285 43.7002 23.4789C43.8635 23.6293 44.0869 23.7045 44.3705 23.7045ZM53.1232 24.291C52.6635 24.8496 52.0275 25.1289 51.2154 25.1289C50.4678 25.1289 49.8963 24.9141 49.501 24.4844C49.11 24.0547 48.9102 23.4252 48.9016 22.5959V18.0262H50.7643V22.5314C50.7643 23.2576 51.0951 23.6207 51.7568 23.6207C52.3885 23.6207 52.8225 23.4016 53.0588 22.9633V18.0262H54.9279V25H53.1748L53.1232 24.291ZM58.0475 18.0262L58.1055 18.8318C58.6039 18.2088 59.2721 17.8973 60.11 17.8973C60.849 17.8973 61.399 18.1143 61.76 18.5482C62.1209 18.9822 62.3057 19.6311 62.3143 20.4947V25H60.4516V20.5398C60.4516 20.1445 60.3656 19.8588 60.1938 19.6826C60.0219 19.5021 59.7361 19.4119 59.3365 19.4119C58.8123 19.4119 58.4191 19.6354 58.157 20.0822V25H56.2943V18.0262H58.0475ZM66.6326 23.6271C66.9764 23.6271 67.2557 23.5326 67.4705 23.3436C67.6854 23.1545 67.7971 22.9031 67.8057 22.5895H69.5523C69.548 23.0621 69.4191 23.4961 69.1656 23.8914C68.9121 24.2824 68.5641 24.5875 68.1215 24.8066C67.6832 25.0215 67.1977 25.1289 66.6648 25.1289C65.668 25.1289 64.8816 24.8131 64.3059 24.1814C63.7301 23.5455 63.4422 22.6689 63.4422 21.5518V21.4293C63.4422 20.3551 63.7279 19.4979 64.2994 18.8576C64.8709 18.2174 65.6551 17.8973 66.652 17.8973C67.5242 17.8973 68.2225 18.1465 68.7467 18.6449C69.2752 19.1391 69.5437 19.7986 69.5523 20.6236H67.8057C67.7971 20.2627 67.6854 19.9705 67.4705 19.7471C67.2557 19.5193 66.9721 19.4055 66.6197 19.4055C66.1857 19.4055 65.857 19.5645 65.6336 19.8824C65.4145 20.1961 65.3049 20.7074 65.3049 21.4164V21.6098C65.3049 22.3273 65.4145 22.843 65.6336 23.1566C65.8527 23.4703 66.1857 23.6271 66.6326 23.6271ZM72.4334 18.7867C72.9275 18.1938 73.5484 17.8973 74.2961 17.8973C75.8086 17.8973 76.5756 18.776 76.5971 20.5334V25H74.7344V20.585C74.7344 20.1854 74.6484 19.891 74.4766 19.702C74.3047 19.5086 74.0189 19.4119 73.6193 19.4119C73.0736 19.4119 72.6783 19.6225 72.4334 20.0436V25H70.5707V15.1H72.4334V18.7867ZM88.7207 22.293L89.984 15.6156H91.9111L89.8293 25H87.8828L86.3553 18.7223L84.8277 25H82.8813L80.7994 15.6156H82.7266L83.9963 22.2801L85.5432 15.6156H87.1803L88.7207 22.293ZM95.8428 25.1289C94.8201 25.1289 93.9865 24.8152 93.342 24.1879C92.7018 23.5605 92.3816 22.7248 92.3816 21.6807V21.5002C92.3816 20.7998 92.517 20.1746 92.7877 19.6246C93.0584 19.0703 93.4408 18.6449 93.935 18.3484C94.4334 18.0477 95.0006 17.8973 95.6365 17.8973C96.5904 17.8973 97.3402 18.198 97.8859 18.7996C98.4359 19.4012 98.7109 20.2541 98.7109 21.3584V22.1189H94.2701C94.3303 22.5744 94.5107 22.9396 94.8115 23.2146C95.1166 23.4896 95.5012 23.6271 95.9652 23.6271C96.6828 23.6271 97.2436 23.3672 97.6475 22.8473L98.5627 23.8721C98.2834 24.2674 97.9053 24.5768 97.4283 24.8002C96.9514 25.0193 96.4229 25.1289 95.8428 25.1289ZM95.6301 19.4055C95.2605 19.4055 94.9598 19.5301 94.7277 19.7793C94.5 20.0285 94.3539 20.3852 94.2895 20.8492H96.8805V20.701C96.8719 20.2885 96.7602 19.9705 96.5453 19.7471C96.3305 19.5193 96.0254 19.4055 95.6301 19.4055ZM106.059 21.5775C106.059 22.6947 105.82 23.567 105.343 24.1943C104.866 24.8174 104.2 25.1289 103.345 25.1289C102.589 25.1289 101.985 24.8389 101.534 24.2588L101.45 25H99.7744V15.1H101.637V18.6514C102.067 18.1486 102.632 17.8973 103.332 17.8973C104.183 17.8973 104.849 18.2109 105.33 18.8383C105.816 19.4613 106.059 20.34 106.059 21.4744V21.5775ZM104.196 21.4422C104.196 20.7375 104.084 20.224 103.861 19.9018C103.637 19.5752 103.304 19.4119 102.862 19.4119C102.269 19.4119 101.861 19.6547 101.637 20.1402V22.8924C101.865 23.3822 102.277 23.6271 102.875 23.6271C103.476 23.6271 103.871 23.3307 104.061 22.7377C104.151 22.4541 104.196 22.0223 104.196 21.4422ZM110.989 23.0729C110.989 22.8451 110.875 22.6668 110.648 22.5379C110.424 22.4047 110.063 22.2865 109.565 22.1834C107.906 21.8354 107.077 21.1307 107.077 20.0693C107.077 19.4506 107.333 18.935 107.844 18.5225C108.36 18.1057 109.032 17.8973 109.861 17.8973C110.746 17.8973 111.453 18.1057 111.982 18.5225C112.515 18.9393 112.781 19.4807 112.781 20.1467H110.918C110.918 19.8803 110.832 19.6611 110.661 19.4893C110.489 19.3131 110.22 19.225 109.855 19.225C109.541 19.225 109.298 19.2959 109.127 19.4377C108.955 19.5795 108.869 19.76 108.869 19.9791C108.869 20.1854 108.965 20.3529 109.159 20.4818C109.356 20.6064 109.687 20.716 110.151 20.8105C110.615 20.9008 111.006 21.0039 111.324 21.1199C112.308 21.4809 112.8 22.1061 112.8 22.9955C112.8 23.6314 112.528 24.1471 111.982 24.5424C111.436 24.9334 110.731 25.1289 109.868 25.1289C109.283 25.1289 108.763 25.0258 108.308 24.8195C107.857 24.609 107.502 24.3232 107.245 23.9623C106.987 23.5971 106.858 23.2039 106.858 22.7828H108.624C108.641 23.1137 108.763 23.3672 108.991 23.5434C109.219 23.7195 109.524 23.8076 109.906 23.8076C110.263 23.8076 110.532 23.741 110.712 23.6078C110.897 23.4703 110.989 23.292 110.989 23.0729ZM115.971 25H114.102V18.0262H115.971V25ZM113.993 16.2215C113.993 15.9422 114.085 15.7123 114.27 15.5318C114.459 15.3514 114.715 15.2611 115.037 15.2611C115.355 15.2611 115.608 15.3514 115.797 15.5318C115.987 15.7123 116.081 15.9422 116.081 16.2215C116.081 16.5051 115.984 16.7371 115.791 16.9176C115.602 17.098 115.351 17.1883 115.037 17.1883C114.723 17.1883 114.47 17.098 114.276 16.9176C114.087 16.7371 113.993 16.5051 113.993 16.2215ZM119.742 16.3117V18.0262H120.934V19.3926H119.742V22.873C119.742 23.1309 119.791 23.3156 119.89 23.4273C119.989 23.5391 120.178 23.5949 120.457 23.5949C120.664 23.5949 120.846 23.5799 121.005 23.5498V24.9613C120.64 25.073 120.264 25.1289 119.877 25.1289C118.571 25.1289 117.905 24.4693 117.879 23.1502V19.3926H116.861V18.0262H117.879V16.3117H119.742ZM125.182 25.1289C124.159 25.1289 123.326 24.8152 122.681 24.1879C122.041 23.5605 121.721 22.7248 121.721 21.6807V21.5002C121.721 20.7998 121.856 20.1746 122.127 19.6246C122.397 19.0703 122.78 18.6449 123.274 18.3484C123.772 18.0477 124.34 17.8973 124.976 17.8973C125.929 17.8973 126.679 18.198 127.225 18.7996C127.775 19.4012 128.05 20.2541 128.05 21.3584V22.1189H123.609C123.669 22.5744 123.85 22.9396 124.151 23.2146C124.456 23.4896 124.84 23.6271 125.304 23.6271C126.022 23.6271 126.583 23.3672 126.987 22.8473L127.902 23.8721C127.622 24.2674 127.244 24.5768 126.767 24.8002C126.29 25.0193 125.762 25.1289 125.182 25.1289ZM124.969 19.4055C124.6 19.4055 124.299 19.5301 124.067 19.7793C123.839 20.0285 123.693 20.3852 123.629 20.8492H126.22V20.701C126.211 20.2885 126.099 19.9705 125.884 19.7471C125.67 19.5193 125.364 19.4055 124.969 19.4055Z" fill="#FFFF00"/>
</g>
<defs>
<clipPath id="clip0">
<rect width="135" height="40" fill="white"/>
</clipPath>
<clipPath id="clip1">
<rect width="23" height="23" fill="white" transform="translate(7 8)"/>
</clipPath>
</defs>
</svg>
