<?xml version="1.0" encoding="UTF-8" standalone="no"?>
<svg
   xmlns:dc="http://purl.org/dc/elements/1.1/"
   xmlns:cc="http://creativecommons.org/ns#"
   xmlns:rdf="http://www.w3.org/1999/02/22-rdf-syntax-ns#"
   xmlns:svg="http://www.w3.org/2000/svg"
   xmlns="http://www.w3.org/2000/svg"
   xml:space="preserve"
   style="enable-background:new 0 0 430.117 430.117; fill: currentColor;"
   viewBox="0 0 430.117 430.117"
   height="25px"
   width="25px"
   y="0px"
   x="0px"
   id="Capa_1"
   version="1.1"><metadata
   id="metadata40"><rdf:RDF><cc:Work
       rdf:about=""><dc:format>image/svg+xml</dc:format><dc:type
         rdf:resource="http://purl.org/dc/dcmitype/StillImage" /><dc:title></dc:title></cc:Work></rdf:RDF></metadata><defs
   id="defs38" />
<g
   id="g3">
	<path
   d="M430.117,261.543V420.56h-92.188V272.193c0-37.271-13.334-62.707-46.703-62.707   c-25.473,0-40.632,17.142-47.301,33.724c-2.432,5.928-3.058,14.179-3.058,22.477V420.56h-92.219c0,0,1.242-251.285,0-277.32h92.21   v39.309c-0.187,0.294-0.43,0.611-0.606,0.896h0.606v-0.896c12.251-18.869,34.13-45.824,83.102-45.824   C384.633,136.724,430.117,176.361,430.117,261.543z M52.183,9.558C20.635,9.558,0,30.251,0,57.463   c0,26.619,20.038,47.94,50.959,47.94h0.616c32.159,0,52.159-21.317,52.159-47.94C103.128,30.251,83.734,9.558,52.183,9.558z    M5.477,420.56h92.184v-277.32H5.477V420.56z"
   id="LinkedIn" />
<path
   transform="scale(17.20468)"
   id="path42"
   d="M 0.38135593,16.408898 V 8.4110169 H 3.029661 5.6779661 V 16.408898 24.40678 H 3.029661 0.38135593 Z"
   style="fill:#ffff00;fill-opacity:1;stroke:none;stroke-width:0.10593221;stroke-opacity:0" /><path
   transform="scale(17.20468)"
   id="path44"
   d="M 8.6970339,16.409034 V 8.4112783 l 2.6218221,-1.307e-4 2.621822,-1.307e-4 v 1.1757505 1.1757506 l 0.46578,-0.619607 c 0.256179,-0.340783 0.651098,-0.7685239 0.877599,-0.9505347 1.297249,-1.0424426 3.134979,-1.4308595 4.950312,-1.0462829 2.258724,0.4785089 3.732706,1.9662416 4.429541,4.4708646 0.219419,0.788655 0.231513,1.072669 0.26859,6.30783 l 0.03882,5.481992 h -2.655154 -2.655154 l -0.0013,-4.793433 c -0.0013,-5.111898 -0.02697,-5.414628 -0.535018,-6.31857 -0.312637,-0.556262 -0.869205,-0.937005 -1.590613,-1.088123 -1.520766,-0.318564 -2.987472,0.580451 -3.449024,2.114073 -0.112768,0.3747 -0.144427,1.532744 -0.144427,5.282973 v 4.80308 l -2.621822,5e-6 -2.6218221,5e-6 z"
   style="fill:#ffff00;fill-opacity:1;stroke:none;stroke-width:0.10593221;stroke-opacity:0" /><path
   transform="scale(17.20468)"
   id="path46"
   d="M 1.8644068,5.8798944 C 1.1648987,5.6319064 0.38481039,4.8506262 0.19107975,4.2040109 -0.10562961,3.2136834 0.1765085,2.0498255 0.87113579,1.398688 1.7403597,0.58388492 3.3086825,0.37499382 4.4317117,0.92444081 5.1569218,1.2792531 5.6281266,1.8146663 5.8399072,2.5245234 6.0370383,3.185278 6.0357086,3.4711017 5.8323172,4.1559949 5.3856267,5.6601647 3.5249099,6.4685724 1.8644068,5.8798944 Z"
   style="fill:#ffff00;fill-opacity:1;stroke:none;stroke-width:0.10593221;stroke-opacity:0" /></g>
<g
   id="g5">
</g>
<g
   id="g7">
</g>
<g
   id="g9">
</g>
<g
   id="g11">
</g>
<g
   id="g13">
</g>
<g
   id="g15">
</g>
<g
   id="g17">
</g>
<g
   id="g19">
</g>
<g
   id="g21">
</g>
<g
   id="g23">
</g>
<g
   id="g25">
</g>
<g
   id="g27">
</g>
<g
   id="g29">
</g>
<g
   id="g31">
</g>
<g
   id="g33">
</g>
</svg>