<?xml version="1.0" encoding="utf-8"?>
<svg version="1.1" id="eumentis-cloud-svg" xmlns="http://www.w3.org/2000/svg" xmlns:xlink="http://www.w3.org/1999/xlink" x="0px" y="0px" viewBox="0 0 119.4 106" style="enable-background:new 0 0 119.4 106;" xml:space="preserve">
<style type="text/css">
	.st0{display:none;fill:#FFFF00;}
	.st1{display:none;}
	.st2{display:none;fill:none;stroke:#FFFFFF;stroke-width:1.5;stroke-linecap:round;stroke-linejoin:round;stroke-miterlimit:10;}
	.st3{fill:#FFFFBB;}
	.st4{fill:#FFFF00;}
</style>
<path id="XMLID_63_" class="st0" d="M87.4,75.5L87.4,75.5c-0.3,0-0.6-0.3-0.6-0.6V62.5c0-0.3,0.3-0.6,0.6-0.6l0,0 c0.3,0,0.6,0.3,0.6,0.6v12.4C88,75.2,87.8,75.5,87.4,75.5z"/>
<rect x="80" y="61.8" class="st1" width="9.2" height="14"/>
<line class="st2" x1="84.4" y1="61.8" x2="87.6" y2="75.9"/>
<line class="st2" x1="88.6" y1="61.8" x2="91.8" y2="75.9"/>
<line class="st2" x1="80.4" y1="61.8" x2="83.6" y2="75.9"/>
<path d="M107.5,35.6c0.5-2,0.7-4.2,0.7-6.3C108.2,13.1,94.5,0,77.6,0C66,0,55.9,6.2,50.7,15.3c-3.1-1.6-6.7-2.6-10.5-2.6c-12,0-21.7,9.3-21.7,20.7c0,0.3,0,0.6,0,0.9h-0.1C8.3,34.4,0,42.3,0,52.1c0,9.8,8.3,17.7,18.5,17.7h82.3c10.2,0,18.5-7.9,18.5-17.7C119.4,44.6,114.4,38.1,107.5,35.6z"/>
<path class="st3" d="M102.8,38.6c0.4-1.7,0.6-3.5,0.6-5.4c0-13.8-12.2-24.9-27.3-24.9c-10.4,0-19.4,5.3-24,13c-2.8-1.4-6-2.2-9.4-2.2c-10.7,0-19.4,7.9-19.4,17.7c0,0.3,0,0.5,0,0.8h-0.1c-9.1,0-16.6,6.8-16.6,15.1c0,8.3,7.4,15.1,16.6,15.1h73.6c9.1,0,16.6-6.8,16.6-15.1C113.4,46.3,109,40.8,102.8,38.6z"/>
<path id="XMLID_64_" class="st4" d="M78.7,76.2l-0.8,0.4c-0.4,0-0.5-0.3-0.5-0.7V61.4c0-0.3,0.1-0.5,0.5-0.5l0.8,0.4c0.4,0,0.8,0.5,0.8,0.8v13.4C79.4,75.9,79.1,76.2,78.7,76.2z"/>
<path d="M77.6,106c-27.5,0-49.7-16.7-49.7-37.3s22.3-37.3,49.7-37.3"/>
<path class="st4" d="M42.7,68.7c0,9.2,7.5,16.7,16.7,16.7c3.9,0,7.5-1.3,10.3-3.6c2.5-2,5.2-3.9,8-5.5V61.1c-2.8-1.6-5.5-3.5-8-5.5c-2.8-2.2-6.4-3.6-10.3-3.6C50.2,52,42.7,59.5,42.7,68.7z"/>
<path d="M55.5,73.7h-13v-9.9h13l0,0.1C54.3,66.8,54.4,70.8,55.5,73.7L55.5,73.7z"/>
<path id="XMLID_67_" d="M94.9,71.9h0.9c1,0,1.8-0.8,1.8-1.9v-2.8c0-1-0.8-1.9-1.8-1.9h-0.9c-0.1-2.1-1.8-3.8-3.9-3.8v14C93.1,75.7,94.7,74,94.9,71.9z"/>
<path id="XMLID_2_" d="M79.4,63v11.4c0,0.8,0.7,1.5,1.6,1.5c0.9,0,1.6-0.7,1.6-1.5V63c0-0.8-0.7-1.5-1.6-1.5C80.1,61.5,79.4,62.1,79.4,63z"/>
<path id="XMLID_7_" class="st4" d="M82.6,63v11.4c0,0.8,0.6,1.5,1.3,1.5c0.7,0,1.3-0.7,1.3-1.5V63c0-0.8-0.6-1.5-1.3-1.5C83.2,61.5,82.6,62.1,82.6,63z"/>
<path id="XMLID_9_" d="M85.2,63v11.4c0,0.8,0.7,1.5,1.6,1.5c0.9,0,1.6-0.7,1.6-1.5V63c0-0.8-0.7-1.5-1.6-1.5C85.9,61.5,85.2,62.1,85.2,63z"/>
<path id="XMLID_8_" class="st4" d="M88.4,63v11.4c0,0.8,0.6,1.5,1.3,1.5c0.7,0,1.3-0.7,1.3-1.5V63c0-0.8-0.6-1.5-1.3-1.5C89,61.5,88.4,62.1,88.4,63z"/>
</svg>
