<?xml version="1.0" encoding="UTF-8" standalone="no"?>
<svg
   xmlns:dc="http://purl.org/dc/elements/1.1/"
   xmlns:cc="http://creativecommons.org/ns#"
   xmlns:rdf="http://www.w3.org/1999/02/22-rdf-syntax-ns#"
   xmlns:svg="http://www.w3.org/2000/svg"
   xmlns="http://www.w3.org/2000/svg"
   xmlns:sodipodi="http://sodipodi.sourceforge.net/DTD/sodipodi-0.dtd"
   xmlns:inkscape="http://www.inkscape.org/namespaces/inkscape"
   width="195px"
   height="195px"
   viewBox="0 0 195 195"
   version="1.1"
   id="svg12"
   sodipodi:docname="social_medium.svg"
   inkscape:version="0.92.3 (2405546, 2018-03-11)">
  <metadata
     id="metadata16">
    <rdf:RDF>
      <cc:Work
         rdf:about="">
        <dc:format>image/svg+xml</dc:format>
        <dc:type
           rdf:resource="http://purl.org/dc/dcmitype/StillImage" />
        <dc:title>Monogram</dc:title>
      </cc:Work>
    </rdf:RDF>
  </metadata>
  <sodipodi:namedview
     pagecolor="#ffffff"
     bordercolor="#666666"
     borderopacity="1"
     objecttolerance="10"
     gridtolerance="10"
     guidetolerance="10"
     inkscape:pageopacity="0"
     inkscape:pageshadow="2"
     inkscape:window-width="1319"
     inkscape:window-height="713"
     id="namedview14"
     showgrid="false"
     inkscape:zoom="1.2102564"
     inkscape:cx="97.5"
     inkscape:cy="97.5"
     inkscape:window-x="47"
     inkscape:window-y="27"
     inkscape:window-maximized="1"
     inkscape:current-layer="svg12" />
  <!-- Generator: Sketch 46.2 (44496) - http://www.bohemiancoding.com/sketch -->
  <title
     id="title2">Monogram</title>
  <desc
     id="desc4">Created with Sketch.</desc>
  <defs
     id="defs6" />
  <g
     id="Page-1"
     stroke-width="1"
     stroke="none"
     fill-rule="evenodd"
     fill="none">
    <g
       id="Monogram"
       fill-rule="nonzero">
      <rect
         id="Rectangle-path"
         x="0"
         y="0"
         width="195"
         height="195"
         fill="#12100E"
         style="fill:#ffff00" />
      <path
         d="M46.5340803,65.2157554 C46.6968378,63.6076572 46.0836,62.018231 44.8828198,60.93592 L32.6512605,46.2010582 L32.6512605,44 L70.6302521,44 L99.9859944,108.380952 L125.794585,44 L162,44 L162,46.2010582 L151.542017,56.2281011 C150.640424,56.9153477 150.193188,58.0448862 150.380019,59.1628454 L150.380019,132.837155 C150.193188,133.955114 150.640424,135.084652 151.542017,135.771899 L161.755369,145.798942 L161.755369,148 L110.38282,148 L110.38282,145.798942 L120.963119,135.527337 C122.002801,134.487948 122.002801,134.182246 122.002801,132.592593 L122.002801,73.0417402 L92.585901,147.755438 L88.6106443,147.755438 L54.3622782,73.0417402 L54.3622782,123.115814 C54.0767278,125.221069 54.7759199,127.3406 56.2581699,128.863022 L70.0186741,145.55438 L70.0186741,147.755438 L31,147.755438 L31,145.55438 L44.7605042,128.863022 C46.2319621,127.338076 46.8903838,125.204485 46.5340803,123.115814 L46.5340803,65.2157554 Z"
         id="Shape"
         fill="#FFFFFF" />
    </g>
  </g>
  <path
     style="fill:#ffffff;fill-opacity:1;stroke:#000000;stroke-width:0.82627118;stroke-opacity:1"
     d="m 31.067797,146.77956 c 0,-0.34497 3.19391,-4.52191 7.097577,-9.28209 3.903668,-4.76017 7.435978,-9.28716 7.849577,-10.05998 0.414439,-0.77439 0.751998,-15.67518 0.751998,-33.19528 V 62.45205 l -7.023305,-8.413914 c -3.862818,-4.627654 -7.023305,-8.751717 -7.023305,-9.164585 0,-0.42822 8.074533,-0.748149 18.797669,-0.744802 l 18.79767,0.0059 14.459746,31.870716 c 7.95286,17.528895 14.701192,32.026125 14.996292,32.216075 0.295104,0.18995 4.509994,-9.59969 9.366444,-21.754758 4.85644,-12.155068 10.69761,-26.654944 12.98038,-32.221947 l 4.1505,-10.121822 h 17.6748 c 14.58101,0 17.6748,0.202052 17.6748,1.154314 0,0.634872 -2.60275,3.46183 -5.78389,6.282127 l -5.7839,5.127813 V 95.665516 134.6439 l 5.7839,5.73957 c 3.18114,3.15677 5.78389,6.02842 5.78389,6.38145 0,0.35302 -11.52648,0.64186 -25.6144,0.64186 -14.65074,0 -25.61441,-0.31868 -25.61441,-0.74454 0,-0.40949 2.69571,-3.16685 5.99047,-6.12747 l 5.99046,-5.38295 0.23531,-31.05472 c 0.12943,-17.0801 -0.0565,-31.051853 -0.41314,-31.048341 -0.35664,0.0036 -7.19461,16.642549 -15.19547,36.975631 -13.205049,33.55879 -14.719458,36.96925 -16.416108,36.96925 -1.661002,0 -3.766918,-4.13928 -18.916951,-37.1822 L 54.616525,72.629237 54.385455,98.65678 c -0.12709,14.31515 -0.04393,26.77119 0.184814,27.68008 0.228738,0.9089 3.772073,5.72246 7.87408,10.6968 4.102006,4.97435 7.458193,9.34326 7.458193,9.70869 0,0.36544 -8.737817,0.66443 -19.417373,0.66443 -10.679555,0 -19.417372,-0.28225 -19.417372,-0.62722 z"
     id="path18"
     inkscape:connector-curvature="0" />
</svg>
