<?xml version="1.0" encoding="UTF-8" standalone="no"?>
<!-- Generator: Adobe Illustrator 18.1.1, SVG Export Plug-In . SVG Version: 6.00 Build 0)  -->

<svg
   xmlns:dc="http://purl.org/dc/elements/1.1/"
   xmlns:cc="http://creativecommons.org/ns#"
   xmlns:rdf="http://www.w3.org/1999/02/22-rdf-syntax-ns#"
   xmlns:svg="http://www.w3.org/2000/svg"
   xmlns="http://www.w3.org/2000/svg"
   xmlns:sodipodi="http://sodipodi.sourceforge.net/DTD/sodipodi-0.dtd"
   xmlns:inkscape="http://www.inkscape.org/namespaces/inkscape"
   version="1.1"
   id="Capa_1"
   x="0px"
   y="0px"
   viewBox="0 0 612 612"
   style="enable-background:new 0 0 612 612;"
   xml:space="preserve"
   sodipodi:docname="twitter-logo-yellow.svg"
   inkscape:version="0.92.4 (33fec40, 2019-01-16)"><metadata
   id="metadata1047"><rdf:RDF><cc:Work
       rdf:about=""><dc:format>image/svg+xml</dc:format><dc:type
         rdf:resource="http://purl.org/dc/dcmitype/StillImage" /><dc:title></dc:title></cc:Work></rdf:RDF></metadata><defs
   id="defs1045" /><sodipodi:namedview
   pagecolor="#ffffff"
   bordercolor="#666666"
   borderopacity="1"
   objecttolerance="10"
   gridtolerance="10"
   guidetolerance="10"
   inkscape:pageopacity="0"
   inkscape:pageshadow="2"
   inkscape:window-width="1530"
   inkscape:window-height="836"
   id="namedview1043"
   showgrid="false"
   inkscape:zoom="0.38562092"
   inkscape:cx="306"
   inkscape:cy="306"
   inkscape:window-x="70"
   inkscape:window-y="27"
   inkscape:window-maximized="1"
   inkscape:current-layer="Capa_1" />
<g
   id="g1010">
	<g
   id="g1008">
		<path
   style="color:yellow;"
   d="M612,116.258c-22.525,9.981-46.694,16.75-72.088,19.772c25.929-15.527,45.777-40.155,55.184-69.411    c-24.322,14.379-51.169,24.82-79.775,30.48c-22.907-24.437-55.49-39.658-91.63-39.658c-69.334,0-125.551,56.217-125.551,125.513    c0,9.828,1.109,19.427,3.251,28.606C197.065,206.32,104.556,156.337,42.641,80.386c-10.823,18.51-16.98,40.078-16.98,63.101    c0,43.559,22.181,81.993,55.835,104.479c-20.575-0.688-39.926-6.348-56.867-15.756v1.568c0,60.806,43.291,111.554,100.693,123.104    c-10.517,2.83-21.607,4.398-33.08,4.398c-8.107,0-15.947-0.803-23.634-2.333c15.985,49.907,62.336,86.199,117.253,87.194    c-42.947,33.654-97.099,53.655-155.916,53.655c-10.134,0-20.116-0.612-29.944-1.721c55.567,35.681,121.536,56.485,192.438,56.485    c230.948,0,357.188-191.291,357.188-357.188l-0.421-16.253C573.872,163.526,595.211,141.422,612,116.258z"
   id="path1006" />
	</g>
</g>
<g
   id="g1012">
</g>
<g
   id="g1014">
</g>
<g
   id="g1016">
</g>
<g
   id="g1018">
</g>
<g
   id="g1020">
</g>
<g
   id="g1022">
</g>
<g
   id="g1024">
</g>
<g
   id="g1026">
</g>
<g
   id="g1028">
</g>
<g
   id="g1030">
</g>
<g
   id="g1032">
</g>
<g
   id="g1034">
</g>
<g
   id="g1036">
</g>
<g
   id="g1038">
</g>
<g
   id="g1040">
</g>
<path
   style="fill:#ffff00;fill-opacity:1;stroke:#000000;stroke-width:2.59322023;stroke-opacity:1"
   d="M 139.77458,549.47261 C 103.52297,543.58807 72.444022,533.72585 39.935593,517.79092 l -29.822034,-14.61813 27.952286,-2.03921 c 33.185031,-2.42095 65.043835,-9.57209 91.252705,-20.48286 20.46207,-8.51839 55.83738,-29.94316 55.83738,-33.81749 0,-1.29539 -3.20911,-2.36911 -7.13135,-2.38605 -24.14905,-0.10424 -59.71621,-17.68731 -79.919421,-39.50919 -11.754612,-12.69638 -27.050922,-36.47992 -27.050922,-42.06027 0,-0.76054 8.60625,-1.3828 19.125,-1.3828 22.110793,0 35.859833,-2.23546 33.840883,-5.50217 -0.77416,-1.25263 -3.38085,-2.27843 -5.79266,-2.27954 -9.67571,-0.005 -37.902411,-16.24121 -52.590732,-30.2515 C 42.207532,301.11404 26.969492,269.90319 26.969492,244.26273 v -9.9688 l 8.015937,4.1452 c 8.337753,4.31162 43.686201,12.57398 45.601313,10.65887 0.602153,-0.60215 -5.825986,-7.69616 -14.284757,-15.76446 -32.744931,-31.23337 -46.385095,-77.06203 -35.441479,-119.0774 2.140059,-8.21624 5.662567,-18.364425 7.8278,-22.551524 l 3.936789,-7.612906 21.345927,21.54288 c 52.028228,52.50828 113.988848,85.88445 185.745578,100.05507 13.69799,2.7051 31.0023,5.43572 38.45405,6.06805 l 13.54862,1.14967 -1.57824,-18.67062 c -5.49622,-65.02011 40.05488,-123.112977 104.93549,-133.82778 33.86731,-5.593067 72.41187,5.263512 98.70993,27.802929 l 11.33387,9.714011 14.13749,-2.965363 c 7.77559,-1.630951 23.68043,-7.167967 35.34406,-12.304483 11.66363,-5.136515 22.7039,-9.9879 24.53394,-10.780856 11.41248,-4.945018 -21.24771,42.574532 -37.07211,53.938752 -6.40012,4.59622 -11.63658,8.89275 -11.63658,9.54785 0,2.49019 27.36477,-2.58796 46.2318,-8.57937 10.82008,-3.436 20.19302,-5.72713 20.82875,-5.09139 0.63575,0.63574 -12.25937,14.472 -28.65579,30.74724 l -29.81171,29.59134 -1.66251,32.03348 c -2.7142,52.29704 -15.23141,98.79239 -39.40388,146.36611 -50.55369,99.49455 -137.45199,165.57466 -245.19292,186.45215 -30.96103,5.99947 -93.82959,7.32406 -122.98628,2.59123 z"
   id="path1592"
   inkscape:connector-curvature="0" /></svg>