<svg version="1" xmlns="http://www.w3.org/2000/svg" width="666.667" height="666.667" viewBox="0 0 500.000000 500.000000"><path d="M347 3.6c-1.9.2-9.1.9-16 1.5-34.2 3-75.6 12.6-107.5 25.1-65 25.4-117.4 66.3-147.8 115.2-50.3 81-38.3 176.8 31.2 249 58.9 61.1 150.7 98.6 250.4 102.3l17.7.6-.2-97.8c-.2-68.2-.6-97.9-1.4-98.2-1.4-.5-27.7 16.9-44.9 29.8-26.1 19.4-43.7 25.9-70.5 25.9-22.6 0-42-5.8-60.5-18.3-8.5-5.7-21.6-18.7-27.6-27.4-4.6-6.7-11.7-20.5-13.4-26.1l-.6-2.2H228.2l-.6-2.3c-3.5-12.3-4-16-4-30.7s.5-18.4 4-30.8l.6-2.2H155.9l.7-2.3c1.6-5.2 7.7-17.3 12.1-24 13-19.5 34-35.5 56.3-42.7 28.9-9.3 64.1-5.2 88.5 10.4 3.3 2.2 11.9 8.3 19 13.6 13.7 10.2 23.7 17.1 34.7 23.8 5.4 3.3 6.7 3.8 7.2 2.6.3-.9.6-45.2.6-98.5V3l-12.2.2c-6.8 0-13.9.3-15.8.4zM385.4 203.1l-2.9 3-.3 42.7c-.2 39.1-.1 43 1.5 46.2 3.9 7.7 15.6 7.4 18.9-.5 1.2-3 1.4-10.2 1.2-46l-.3-42.4-2.9-3c-2.5-2.6-3.7-3.1-7.6-3.1-3.9 0-5.1.5-7.6 3.1zM411 250v45h3.3c4.1 0 11.4-3.3 15-6.8 3.3-3.1 6.7-9.3 7.7-13.7.5-2.7 1-3 5.5-3.5 10.7-1.2 12.5-4.2 12.5-21 0-9.7-.4-12.8-1.7-15.1-2.1-3.6-6.9-5.9-12.2-5.9-3.6 0-4.1-.3-4.1-2.3 0-3.7-4.9-12.5-8.8-15.7-3.8-3.1-11-6-14.9-6H411v45z"/></svg>