<svg className="service-img" x="0px" y="0px" viewBox="0 0 94.7 125" xmlSpace="preserve">
<path className="st0" d="M38.3 8.8L56.4 8.8" />
<path
className="st0"
d="M86.3 123.5h-78c-3.8 0-6.8-3.1-6.8-6.8V8.3c0-3.8 3.1-6.8 6.8-6.8h78c3.8 0 6.8 3.1 6.8 6.8v108.3c.1 3.8-3 6.9-6.8 6.9z"
/>
<path className="st0" d="M38.3 116.2L56.4 116.2" />
<path className="st0" d="M1.5 16L93.2 16" />
<path className="st0" d="M93.2 109L1.5 109" />
<path
className="st0"
d="M20.8 38.6h-6.1c-1.8 0-3.2-1.4-3.2-3.2v-6.1c0-1.8 1.4-3.2 3.2-3.2h6.1c1.8 0 3.2 1.4 3.2 3.2v6.1c0 1.8-1.4 3.2-3.2 3.2zM40.2 38.6h-6.1c-1.8 0-3.2-1.4-3.2-3.2v-6.1c0-1.8 1.4-3.2 3.2-3.2h6.1c1.8 0 3.2 1.4 3.2 3.2v6.1c0 1.8-1.4 3.2-3.2 3.2zM59.6 38.6h-6.1c-1.8 0-3.2-1.4-3.2-3.2v-6.1c0-1.8 1.4-3.2 3.2-3.2h6.1c1.8 0 3.2 1.4 3.2 3.2v6.1c0 1.8-1.4 3.2-3.2 3.2zM79 38.6h-6.1c-1.8 0-3.2-1.4-3.2-3.2v-6.1c0-1.8 1.4-3.2 3.2-3.2H79c1.8 0 3.2 1.4 3.2 3.2v6.1c0 1.8-1.4 3.2-3.2 3.2zM20.8 58.9h-6.1c-1.8 0-3.2-1.4-3.2-3.2v-6.1c0-1.8 1.4-3.2 3.2-3.2h6.1c1.8 0 3.2 1.4 3.2 3.2v6.1c0 1.7-1.4 3.2-3.2 3.2zM40.2 58.9h-6.1c-1.8 0-3.2-1.4-3.2-3.2v-6.1c0-1.8 1.4-3.2 3.2-3.2h6.1c1.8 0 3.2 1.4 3.2 3.2v6.1c0 1.7-1.4 3.2-3.2 3.2zM59.6 58.9h-6.1c-1.8 0-3.2-1.4-3.2-3.2v-6.1c0-1.8 1.4-3.2 3.2-3.2h6.1c1.8 0 3.2 1.4 3.2 3.2v6.1c0 1.7-1.4 3.2-3.2 3.2zM79 58.9h-6.1c-1.8 0-3.2-1.4-3.2-3.2v-6.1c0-1.8 1.4-3.2 3.2-3.2H79c1.8 0 3.2 1.4 3.2 3.2v6.1c0 1.7-1.4 3.2-3.2 3.2zM20.8 79.1h-6.1c-1.8 0-3.2-1.4-3.2-3.2v-6.1c0-1.8 1.4-3.2 3.2-3.2h6.1c1.8 0 3.2 1.4 3.2 3.2v6.1c0 1.8-1.4 3.2-3.2 3.2zM40.2 79.1h-6.1c-1.8 0-3.2-1.4-3.2-3.2v-6.1c0-1.8 1.4-3.2 3.2-3.2h6.1c1.8 0 3.2 1.4 3.2 3.2v6.1c0 1.8-1.4 3.2-3.2 3.2zM59.6 79.1h-6.1c-1.8 0-3.2-1.4-3.2-3.2v-6.1c0-1.8 1.4-3.2 3.2-3.2h6.1c1.8 0 3.2 1.4 3.2 3.2v6.1c0 1.8-1.4 3.2-3.2 3.2zM79 79.1h-6.1c-1.8 0-3.2-1.4-3.2-3.2v-6.1c0-1.8 1.4-3.2 3.2-3.2H79c1.8 0 3.2 1.4 3.2 3.2v6.1c0 1.8-1.4 3.2-3.2 3.2z"
/>
<circle className="st0" cx="35.2" cy="98.2" r="0.5" />
<circle className="st0" cx="47.1" cy="98.2" r="0.5" />
<circle className="st0" cx="59.1" cy="98.2" r="0.5" />
        </svg>
