<svg
        viewBox="0 0 48 46"
        fill="none"
        xmlns="http://www.w3.org/2000/svg"
        >
<path class="st1"
d="M33.378 14.631c-.57-5.22-1.11-10.15 3.22-13.91a.44.44 0 000-.6.42.42 0 00-.59 0c-4.62 4.01-4.02 9.37-3.46 14.6.56 5.23 1.11 10.16-3.21 13.92s-9.13 2.54-14.22 1.26-10.33-2.62-15 1.43a.44.44 0 00.45.72.409.409 0 00.14-.08 9.851 9.851 0 014.15-2.21c3.18-.8 6.56.06 10.08.95 5.08 1.28 10.32 2.61 15-1.44s4.05-9.43 3.44-14.64z"
fill="#000"
/>
<path class="st1"
d="M47.888 13.051a.47.47 0 00-.29-.14.41.41 0 00-.3.1c-4.33 3.76-9.13 2.55-14.23 1.26-3.5-.89-7.09-1.79-10.51-.94a10.79 10.79 0 00-4.47 2.38c-4.65 4.05-4.07 9.43-3.49 14.64.58 5.21 1.11 10.14-3.22 13.91a.47.47 0 00-.14.29.412.412 0 00.1.3.43.43 0 00.29.15.45.45 0 00.31-.1c4.65-4 4.06-9.44 3.49-14.64-.57-5.2-1.11-10.16 3.21-13.92s9.13-2.54 14.22-1.26 10.33 2.61 15-1.44a.42.42 0 00.03-.59z"
fill="#000"
/>
<path class="st1"
d="M1.988 32.141a.4.4 0 00.1.31l9.05 10.4a.44.44 0 00.45.12.409.409 0 00.14-.08.42.42 0 000-.59l-9-10.4a.43.43 0 00-.42-.14.563.563 0 00-.17.09.38.38 0 00-.15.29zM12.988 40.211l-8-9.28a.43.43 0 00-.29-.15h-.13a.43.43 0 00-.32.38.41.41 0 00.11.3l8.07 9.29a.47.47 0 00.29.14.408.408 0 00.3-.1.4.4 0 000-.59l-.03.01zM7.098 30.021a.28.28 0 00-.13 0 .512.512 0 00-.18.09.44.44 0 00-.14.29.41.41 0 00.1.3l6.74 7.79a.47.47 0 00.29.14.41.41 0 00.45-.39.408.408 0 00-.1-.3l-6.75-7.75a.42.42 0 00-.28-.17zM10.248 30.071h-.13a.31.31 0 00-.18.09.42.42 0 00-.04.59l4 4.56a.38.38 0 00.29.14.369.369 0 00.3-.1.4.4 0 00.15-.29.42.42 0 00-.1-.3l-4-4.56a.39.39 0 00-.29-.13zM21.518 16.011a.563.563 0 00-.17.09.47.47 0 00-.14.29.45.45 0 00.1.31l8.08 9.28a.42.42 0 00.59.04.44.44 0 00.14-.29.408.408 0 00-.1-.3l-8.03-9.29a.44.44 0 00-.47-.13zM23.638 15.631a.37.37 0 00.1.3l6.74 7.75a.42.42 0 00.29.14.419.419 0 00.34-.69l-6.74-7.75a.42.42 0 00-.59 0 .371.371 0 00-.14.25zM26.778 15.681a.44.44 0 00.11.31l4 4.56a.35.35 0 00.28.14.39.39 0 00.31-.1.42.42 0 00.04-.59l-4-4.56a.42.42 0 00-.42-.13.32.32 0 00-.17.09.392.392 0 00-.15.28zM36.318 2.251a.43.43 0 00.1.31l9.06 10.4a.35.35 0 00.28.14.39.39 0 00.31-.1.42.42 0 00.04-.59l-9.06-10.4a.41.41 0 00-.59 0 .42.42 0 00-.14.24zM35.498 3.961a.45.45 0 00-.31.1.42.42 0 00-.04.59l8.08 9.28a.402.402 0 00.59.04.419.419 0 00.17-.28.45.45 0 00-.1-.31l-8.08-9.28a.38.38 0 00-.31-.14zM34.098 6.361a.422.422 0 00-.04.59l6.74 7.75a.42.42 0 00.29.14.408.408 0 00.3-.1.38.38 0 00.14-.29.369.369 0 00-.1-.3l-6.74-7.75a.41.41 0 00-.59-.04zM33.578 9.771a.45.45 0 00.1.31l4 4.56a.44.44 0 00.29.14.369.369 0 00.3-.1.36.36 0 00.14-.29.369.369 0 00-.1-.3l-4-4.56a.409.409 0 00-.59-.05.47.47 0 00-.14.29zM28.748 27.491l-9.06-10.37a.391.391 0 00-.28-.15h-.14a.563.563 0 00-.17.09.47.47 0 00-.14.29.412.412 0 00.1.3l9 10.41a.47.47 0 00.29.14.408.408 0 00.3-.1.4.4 0 00.15-.29.409.409 0 00-.05-.32zM17.688 19.491a.43.43 0 00.1.31l8.08 9.28a.38.38 0 00.28.14.39.39 0 00.31-.1.42.42 0 000-.59l-8.08-9.28a.409.409 0 00-.59 0 .42.42 0 00-.1.24zM17.038 21.361h-.13a.32.32 0 00-.17.09.35.35 0 00-.14.28.4.4 0 00.1.31l6.74 7.74a.402.402 0 00.29.15.45.45 0 00.3-.1.418.418 0 00.14-.29.45.45 0 00-.1-.31l-6.74-7.74a.41.41 0 00-.29-.13zM16.218 24.881a.412.412 0 00.1.3l4 4.57a.42.42 0 00.29.14.408.408 0 00.3-.1.42.42 0 000-.59l-4-4.57a.42.42 0 00-.73.25h.04z"
fill="#000"
/>
        </svg>
