<svg
        className="tab-logo"
        x="0px"
        y="0px"
        viewBox="0 0 98.7 125.1"
        xmlSpace="preserve"
>
    <path d="M81.4 50.1c0-18.4-15.6-33.3-34.3-32-15.6 1.1-28.4 13.6-29.7 29.2-.8 9.8 2.8 18.8 9.1 25.2 3.5 3.6 5.7 8.3 5.7 13.4v.1h34.3c0-4.9 1.9-9.7 5.4-13.1 5.9-5.8 9.5-13.9 9.5-22.8z" />
    <path d="M27.8 48.3c.9-10.7 9.6-19.3 20.3-20.1.5 0 1.1-.1 1.6-.1 5.6 0 10.6 2.1 14.5 5.5" />
    <path d="M32 92.9L66.7 92.9" />
    <path d="M51.4 116.4h-4.2c-8.4 0-15.3-6.8-15.3-15.3v-1.4h34.8v1.4c0 8.4-6.8 15.3-15.3 15.3zM44.2 116.7v1.8c0 2.8 2.3 5.1 5.1 5.1s5.1-2.3 5.1-5.1v-1.8" />
    <path d="M49.3 9.8L49.3 1.5" />
    <path d="M35.6 12.2L32.7 4.4" />
    <path d="M23.4 19.2L18.1 12.9" />
    <path d="M14.4 29.9L7.3 25.8" />
    <path d="M9.7 43.1L1.5 41.6" />
    <path d="M9.7 57.1L1.5 58.5" />
    <path d="M89 57.1L97.2 58.5" />
    <path d="M89 43.1L97.2 41.6" />
    <path d="M84.2 29.9L91.4 25.8" />
    <path d="M75.2 19.2L80.6 12.9" />
    <path d="M63.1 12.2L66 4.4" />
</svg>
