<svg
        className="eumentis-cloud-logo"
        x="0px"
        y="0px"
        viewBox="0 0 119.4 106"
        xmlSpace="preserve"
>
    <style>
        {
        ".st2{display:none;fill:none;stroke:#fff;stroke-width:1.5;stroke-linecap:round;stroke-linejoin:round;stroke-miterlimit:10}.st4{fill:#ff0}"
        }
    </style>
    <path className="st2" d="M84.4 61.8L87.6 75.9" />
    <path className="st2" d="M88.6 61.8L91.8 75.9" />
    <path className="st2" d="M80.4 61.8L83.6 75.9" />
    <path d="M107.5 35.6c.5-2 .7-4.2.7-6.3C108.2 13.1 94.5 0 77.6 0 66 0 55.9 6.2 50.7 15.3c-3.1-1.6-6.7-2.6-10.5-2.6-12 0-21.7 9.3-21.7 20.7v.9h-.1C8.3 34.4 0 42.3 0 52.1s8.3 17.7 18.5 17.7h82.3c10.2 0 18.5-7.9 18.5-17.7.1-7.5-4.9-14-11.8-16.5z" />
    <path
            d="M102.8 38.6c.4-1.7.6-3.5.6-5.4 0-13.8-12.2-24.9-27.3-24.9-10.4 0-19.4 5.3-24 13-2.8-1.4-6-2.2-9.4-2.2-10.7 0-19.4 7.9-19.4 17.7v.8h-.1c-9.1 0-16.6 6.8-16.6 15.1S14 67.8 23.2 67.8h73.6c9.1 0 16.6-6.8 16.6-15.1 0-6.4-4.4-11.9-10.6-14.1z"
            fill="#ffb"
    />
    <path
            id="XMLID_64_"
            className="st4"
            d="M78.7 76.2l-.8.4c-.4 0-.5-.3-.5-.7V61.4c0-.3.1-.5.5-.5l.8.4c.4 0 .8.5.8.8v13.4c-.1.4-.4.7-.8.7z"
    />
    <path d="M77.6 106c-27.5 0-49.7-16.7-49.7-37.3s22.3-37.3 49.7-37.3" />
    <path
            className="st4"
            d="M42.7 68.7c0 9.2 7.5 16.7 16.7 16.7 3.9 0 7.5-1.3 10.3-3.6 2.5-2 5.2-3.9 8-5.5V61.1c-2.8-1.6-5.5-3.5-8-5.5-2.8-2.2-6.4-3.6-10.3-3.6-9.2 0-16.7 7.5-16.7 16.7z"
    />
    <path d="M55.5 73.7h-13v-9.9h13v.1c-1.2 2.9-1.1 6.9 0 9.8z" />
    <path
            id="XMLID_67_"
            d="M94.9 71.9h.9c1 0 1.8-.8 1.8-1.9v-2.8c0-1-.8-1.9-1.8-1.9h-.9c-.1-2.1-1.8-3.8-3.9-3.8v14c2.1.2 3.7-1.5 3.9-3.6z"
    />
    <path
            id="XMLID_2_"
            d="M79.4 63v11.4c0 .8.7 1.5 1.6 1.5.9 0 1.6-.7 1.6-1.5V63c0-.8-.7-1.5-1.6-1.5-.9 0-1.6.6-1.6 1.5z"
    />
    <path
            id="XMLID_7_"
            className="st4"
            d="M82.6 63v11.4c0 .8.6 1.5 1.3 1.5.7 0 1.3-.7 1.3-1.5V63c0-.8-.6-1.5-1.3-1.5-.7 0-1.3.6-1.3 1.5z"
    />
    <path
            id="XMLID_9_"
            d="M85.2 63v11.4c0 .8.7 1.5 1.6 1.5.9 0 1.6-.7 1.6-1.5V63c0-.8-.7-1.5-1.6-1.5-.9 0-1.6.6-1.6 1.5z"
    />
    <path
            id="XMLID_8_"
            className="st4"
            d="M88.4 63v11.4c0 .8.6 1.5 1.3 1.5.7 0 1.3-.7 1.3-1.5V63c0-.8-.6-1.5-1.3-1.5-.7 0-1.3.6-1.3 1.5z"
    />
</svg>
