<svg
		className="ec-theme-color"
		xmlSpace="preserve"
		viewBox="0 0 430.117 430.117"
		height="25px"
		width="25px"
		y="0px"
		x="0px"
		fill="currentColor"
		>
<path d="M430.117 261.543V420.56h-92.188V272.193c0-37.271-13.334-62.707-46.703-62.707-25.473 0-40.632 17.142-47.301 33.724-2.432 5.928-3.058 14.179-3.058 22.477V420.56h-92.219s1.242-251.285 0-277.32h92.21v39.309c-.187.294-.43.611-.606.896h.606v-.896c12.251-18.869 34.13-45.824 83.102-45.824 60.673-.001 106.157 39.636 106.157 124.818zM52.183 9.558C20.635 9.558 0 30.251 0 57.463c0 26.619 20.038 47.94 50.959 47.94h.616c32.159 0 52.159-21.317 52.159-47.94-.606-27.212-20-47.905-51.551-47.905zM5.477 420.56h92.184V143.24H5.477v277.32z" />
<path
transform="scale(17.20468)"
d="M.381 16.409V8.41H5.678v15.996H.381zM8.697 16.409V8.411h5.244v2.352l.465-.62c.257-.34.652-.769.878-.95 1.297-1.043 3.135-1.431 4.95-1.047 2.26.479 3.733 1.966 4.43 4.471.22.789.231 1.073.268 6.308l.04 5.482H19.66l-.001-4.794c-.002-5.112-.027-5.414-.535-6.318-.313-.556-.87-.937-1.59-1.088-1.522-.319-2.988.58-3.45 2.114-.113.374-.144 1.532-.144 5.283v4.803H8.697zM1.864 5.88c-.7-.248-1.48-1.03-1.673-1.676-.297-.99-.014-2.154.68-2.805C1.741.584 3.31.375 4.431.924c.726.355 1.197.89 1.409 1.6.197.661.196.947-.008 1.632C5.386 5.66 3.525 6.469 1.864 5.88z"
fill="#ff0"
fillOpacity="1"
		stroke="none"
		strokeWidth="0.10593221"
		strokeOpacity="0"
		/>
		</svg>
