<svg
        className="tab-logo"
        x="0px"
        y="0px"
        viewBox="0 0 147.4 125.5"
        xmlSpace="preserve"
>
    <path d="M99.3 18.3C88.9 7.9 74.6 1.5 58.8 1.5 27.1 1.5 1.5 27.1 1.5 58.8S27.1 116 58.8 116 116 90.4 116 58.8c0-4.3-.5-8.4-1.4-12.4M58.8 13.3c-25.1 0-45.5 20.4-45.5 45.5" />
    <path d="M81.5 35.2C75.6 29.5 67.6 26 58.8 26 40.7 26 26 40.7 26 58.8s14.7 32.8 32.8 32.8 32.8-14.7 32.8-32.8c0-2.3-.2-4.6-.7-6.8" />
    <path d="M28.1 107.6L17.8 124" />
    <path d="M89.4 107.6L99.7 124" />
    <path d="M58.8 58.8L108.9 31.2" />
    <path d="M123.2 35.1L108.9 31.2 112.7 16.9" />
    <path d="M134.6 28.6L120.2 24.8 124.1 10.5" />
    <path d="M145.9 22.1L131.6 18.3 135.4 4" />
    <path d="M60.9 47.4L58.3 58.9 70.1 62.3" />
</svg>
