<svg version="1.1"
      xmlns="http://www.w3.org/2000/svg"
      xmlns:xlink="http://www.w3.org/1999/xlink"  id="snapshot-48323" width="800" height="800" viewBox="0 0 800 800"><desc>This image was made on Patterninja.com</desc><defs>
<!-- image 80021 -->
<g id="transformed-80021" data-image="80021" transform="translate(-90.90909090910452, -90.9090909091045) rotate(0, 90.90909090910452, 90.9090909091045)"><g><svg version="1.1" width="181.81818181820904px" height="181.818181818209px" viewBox="0 0 181.81818181820904 181.818181818209"><g id="original-80021"><svg xmlns="http://www.w3.org/2000/svg" fill="none" viewBox="0 0 100 100" xmlns:xlink="http://www.w3.org/1999/xlink" version="1.1" preserveAspectRatio="xMidYMid meet">
  <path d="M15.632 72.078H1.518C.68 72.078 0 72.754 0 73.59v11.766c0 .836.68 1.512 1.518 1.512h14.114c.838 0 1.518-.676 1.518-1.511v-4.373h15.992c.838 0 1.517-.675 1.517-1.51V61.968h13.823v23.24h-5.54c-.837 0-1.517.676-1.517 1.511V98.49c0 .835.68 1.511 1.518 1.511h14.114c.838 0 1.518-.676 1.518-1.511V86.72c0-.835-.68-1.511-1.518-1.511h-5.54v-23.24h13.824v17.504c0 .835.68 1.511 1.517 1.511H82.85v4.373c0 .835.68 1.51 1.518 1.51h14.114c.838 0 1.518-.675 1.518-1.51V73.59c0-.836-.68-1.512-1.518-1.512H84.368c-.838 0-1.518.676-1.518 1.512v4.372H68.376V61.969h12.213c10.703 0 19.411-8.672 19.411-19.331 0-9.428-6.67-17.298-15.785-18.986.334-1.432.502-2.88.502-4.32C84.717 8.671 76.002 0 65.291 0c-6.88 0-13.292 3.72-16.746 9.597a19.44 19.44 0 0 0-8.387-1.919c-9.412 0-17.354 6.653-19.07 15.71a17.787 17.787 0 0 0-1.662-.082C8.715 23.306 0 31.978 0 42.638s8.715 19.331 19.426 19.331h12.198v15.993H17.15V73.59c0-.836-.68-1.512-1.518-1.512zm39.907 24.9H44.461v-8.746h11.078v8.745zM85.886 75.1h11.079v8.744h-11.08v-8.744zM3.036 42.638c0-8.992 7.352-16.309 16.39-16.309.815 0 1.675.075 2.707.238.413.07.83-.04 1.16-.293.33-.25.542-.625.586-1.037.901-8.286 7.9-14.536 16.279-14.536 2.87 0 5.724.775 8.25 2.244a1.523 1.523 0 0 0 2.133-.653c2.713-5.63 8.503-9.27 14.75-9.27 9.038 0 16.39 7.317 16.39 16.31 0 1.703-.28 3.42-.834 5.106-.144.437-.08.916.173 1.3s.668.634 1.128.677c8.447.785 14.817 7.76 14.817 16.223 0 8.992-7.347 16.308-16.376 16.308H19.426c-9.038 0-16.39-7.316-16.39-16.308zm11.078 41.207H3.035v-8.744h11.08v8.744z" fill="rgba(0, 0, 0, 1)" stroke="none"/>
</svg>
</g></svg></g></g>
<!-- /image 80021 -->

<!-- image 11635 -->
<g id="transformed-11635" data-image="11635" transform="translate(371.92254461850086, 228.2447010362459) rotate(32, 114.76745538149916, 119.70529896375407)"><g><svg version="1.1" width="229.53491076299832px" height="239.41059792750815px" viewBox="0 0 229.53491076299832 239.41059792750815"><g id="original-11635"><svg xmlns="http://www.w3.org/2000/svg" fill="none" viewBox="0 0 95 99" xmlns:xlink="http://www.w3.org/1999/xlink" version="1.1" preserveAspectRatio="xMidYMid meet">
  <path d="M1.777 44.43l6.463.668a1.98 1.98 0 0 0 .408-3.939l-6.465-.668c-1.088-.124-2.06.678-2.172 1.767a1.98 1.98 0 0 0 1.766 2.172z" fill="rgba(0, 0, 0, 1)" stroke="none"/>
  <path d="M5.236 28.033L11.11 31a1.98 1.98 0 0 0 1.785-3.535L7.02 24.498a1.98 1.98 0 1 0-1.784 3.535z" fill="rgba(0, 0, 0, 1)" stroke="none"/>
  <path d="M17.993 20.212a1.98 1.98 0 1 0 2.812-2.788l-4.65-4.693a1.98 1.98 0 0 0-2.813 2.786l4.651 4.695z" fill="rgba(0, 0, 0, 1)" stroke="none"/>
  <path d="M27.77 12.77a1.98 1.98 0 0 0 3.529-1.795L28.327 5.13a1.98 1.98 0 1 0-3.529 1.796l2.972 5.844z" fill="rgba(0, 0, 0, 1)" stroke="none"/>
  <path d="M41.625 10.356a1.981 1.981 0 0 0 1.645-2.267l-1.021-6.42a1.981 1.981 0 0 0-3.912.623l1.021 6.42a1.981 1.981 0 0 0 2.267 1.644z" fill="rgba(0, 0, 0, 1)" stroke="none"/>
  <path d="M53.332 10.355A1.982 1.982 0 0 0 55.6 8.711l1.022-6.42a1.981 1.981 0 0 0-3.912-.623l-1.021 6.42a1.982 1.982 0 0 0 1.644 2.267z" fill="rgba(0, 0, 0, 1)" stroke="none"/>
  <path d="M64.526 13.636a1.98 1.98 0 0 0 2.663-.866l2.973-5.844a1.981 1.981 0 0 0-3.53-1.795l-2.972 5.843a1.98 1.98 0 0 0 .867 2.662z" fill="rgba(0, 0, 0, 1)" stroke="none"/>
  <path d="M76.967 20.213l4.65-4.694a1.98 1.98 0 0 0-.013-2.8 1.976 1.976 0 0 0-2.8.014l-4.65 4.694a1.98 1.98 0 1 0 2.813 2.786z" fill="rgba(0, 0, 0, 1)" stroke="none"/>
  <path d="M81.19 30.127a1.98 1.98 0 0 0 2.66.875l5.876-2.969a1.98 1.98 0 0 0-1.787-3.535l-5.874 2.97a1.98 1.98 0 0 0-.875 2.66z" fill="rgba(0, 0, 0, 1)" stroke="none"/>
  <path d="M84.546 43.332a1.98 1.98 0 0 0 2.173 1.765l6.464-.668a1.98 1.98 0 0 0 1.766-2.172 1.975 1.975 0 0 0-2.173-1.766l-6.465.668a1.98 1.98 0 0 0-1.765 2.173z" fill="rgba(0, 0, 0, 1)" stroke="none"/>
  <path d="M24.012 62.918c6.877 9.063 10.48 20.09 10.944 31.564.113 2.533 2.201 4.517 4.752 4.517H55.157c2.55 0 4.638-1.976 4.753-4.498.521-11.19 4.53-22.38 11.595-32.36 13.309-18.791.647-45.012-22.278-46.331-25.3-1.437-40.138 27.375-25.214 47.108zm15.782 32.12c-.426 0-.776-.366-.796-.828a64.743 64.743 0 0 0-.293-3.742h9.372a1.98 1.98 0 0 0 0-3.96h-9.906a61.796 61.796 0 0 0-.93-4.572h20.526a60.122 60.122 0 0 0-1.901 12.384c-.018.397-.375.719-.797.719H39.794zm5.247-35.344a25.287 25.287 0 0 0-3.525-11.446h11.928a25.245 25.245 0 0 0-3.524 11.435l-1.164 18.294h-2.553l-1.162-18.283zm3.956-39.93c19.817 1.14 30.798 23.819 19.275 40.088-4.05 5.723-7.12 11.836-9.208 18.124h-6.34l1.15-18.052a21.304 21.304 0 0 1 3.317-10.21 3.55 3.55 0 0 0 .138-3.62 3.479 3.479 0 0 0-3.056-1.806H40.686a3.475 3.475 0 0 0-3.055 1.807 3.548 3.548 0 0 0 .136 3.618 21.322 21.322 0 0 1 3.321 10.222l1.147 18.041h-6.107c-2.004-6.32-4.99-12.218-8.959-17.448-12.952-17.124-.015-42.04 21.828-40.764z" fill="rgba(0, 0, 0, 1)" stroke="none"/>
</svg>
</g></svg></g></g>
<!-- /image 11635 -->
</defs><rect x="0" y="0" width="800" height="800" fill="rgba(255, 255, 218, 1)"></rect><use xlink:href="#transformed-80021" transform="translate(-800, -800)"></use><use xlink:href="#transformed-80021" transform="translate(0, -800)"></use><use xlink:href="#transformed-80021" transform="translate(800, -800)"></use><use xlink:href="#transformed-80021" transform="translate(-800, 0)"></use><use xlink:href="#transformed-80021" transform="translate(0, 0)"></use><use xlink:href="#transformed-80021" transform="translate(800, 0)"></use><use xlink:href="#transformed-80021" transform="translate(-800, 800)"></use><use xlink:href="#transformed-80021" transform="translate(0, 800)"></use><use xlink:href="#transformed-80021" transform="translate(800, 800)"></use><use xlink:href="#transformed-11635" transform="translate(-800, -800)"></use><use xlink:href="#transformed-11635" transform="translate(0, -800)"></use><use xlink:href="#transformed-11635" transform="translate(800, -800)"></use><use xlink:href="#transformed-11635" transform="translate(-800, 0)"></use><use xlink:href="#transformed-11635" transform="translate(0, 0)"></use><use xlink:href="#transformed-11635" transform="translate(800, 0)"></use><use xlink:href="#transformed-11635" transform="translate(-800, 800)"></use><use xlink:href="#transformed-11635" transform="translate(0, 800)"></use><use xlink:href="#transformed-11635" transform="translate(800, 800)"></use></svg>