<svg
        className="service-img"
        x="0px"
        y="0px"
        viewBox="0 0 107.5 125.3"
        xmlSpace="preserve"
        >
<path
className="st0"
d="M66.6 115.8c1.6 3.8 5.3 6.4 9.7 6.4 2.3 0 4.5-.8 6.2-2 1 1.2 2.5 2 4.2 2 1.8 0 3.5-.9 4.5-2.3 1.6 1.4 3.7 2.3 6 2.3 4.9 0 8.9-4 8.9-8.9 0-4.1-2.8-7.6-6.6-8.6v-.7c0-3-2.4-5.5-5.5-5.5-.5 0-1 .1-1.4.2v-.1c0-3-2.4-5.4-5.4-5.4-1.6 0-3.1.7-4.1 1.9-1.2-1.8-3.2-3.1-5.5-3.1H77M30.5 92.2h-.7c-2.3 0-4.4 1.2-5.5 3.1-1-1.1-2.4-1.9-4.1-1.9-3 0-5.4 2.4-5.4 5.4v.1c-.4-.1-.9-.2-1.4-.2-3 0-5.5 2.4-5.5 5.5v.7c-3.8 1-6.6 4.5-6.6 8.6 0 4.9 4 8.9 8.9 8.9 2.3 0 4.4-.9 6-2.3 1 1.4 2.6 2.3 4.5 2.3 1.7 0 3.2-.8 4.2-2 1.7 1.3 3.9 2 6.2 2 4.4 0 8.2-2.7 9.7-6.5"
/>
<path
className="st0"
d="M40.3 75L34 82c-3.5 3.9-4.5 9.4-2.6 14.2 2.2 5.7 5.9 13.8 11.4 22.5l-2-18.3c-.5-4.1 1.9-8.1 5.8-9.5.1 0 .1 0 .2-.1L40.3 75zM53.8 118.7c6.1-25.8 0-44.5 0-44.5s-6.1 18.7 0 44.5zM51.1 92.2s-2.7-.1-4.4-1.2M67.3 75l6.3 7c3.5 3.9 4.5 9.4 2.6 14.2-2.2 5.7-5.9 13.8-11.4 22.5l2-18.3c.5-4.1-1.9-8.1-5.8-9.5-.1 0-.1 0-.2-.1L67.3 75zM56.5 92.2s2.7-.1 4.4-1.2"
/>
<path
className="st0"
d="M40.3 75S26.2 31.8 53.7 2.2c9.2 9.9 13.8 21.3 15.8 32.2 0 0 3.3 15.2 0 30.4C68 72 67.2 75 67.2 75"
/>
<path className="st0" d="M65.5 19.6s-4.3 1.8-11.7 1.8S42 19.6 42 19.6" />
<circle className="st0" cx="53.8" cy="45" r="8.3" />
</svg>
