<svg
        className="tab-logo"
        x="0px"
        y="0px"
        viewBox="0 0 97.8 125.4"
        xmlSpace="preserve"
>
    <path d="M56 75.2L48.9 82.1 41.8 75.2" />
    <path d="M45.4 78.7L38.4 113.4 48.9 123.9" />
    <path d="M52.4 78.7L59.4 113.4 48.9 123.9" />
    <path d="M68.2 108l27.8-5.8-3.7-18.4c-.8-4.1-3-7.8-6.2-10.4-2-1.7-4.1-2.8-6.1-3.2l-15.7-4.6c-.3-.1-.7-.3-1-.4-.8-.6-1.4-1.4-1.5-2.4l-.7-6.2c4.4-3.4 7.7-8.5 9.2-14.5 2.8-.2 5-3.4 5-7.3 0-3.6-1.8-6.6-4.3-7.2M26.7 27.6c-2.4.7-4.2 3.6-4.2 7.2 0 3.9 2.1 7 4.9 7.3 1.6 6 4.8 11.1 9.2 14.5l-.7 6.2c-.1 1-.7 1.9-1.5 2.4-.3.2-.6.3-1 .4l-15.7 4.5c-2 .4-4.1 1.5-6.1 3.2-3.2 2.7-5.4 6.3-6.2 10.4l-3.7 18.4 24.9 5.2M71 27.5s1.3-26-22.1-26c-23.4 0-22.2 26.1-22.2 26.1" />
    <path d="M28.3 16.4c.9-1.9 2.7-3.3 4.6-4 3.2-1.2 6.7-.2 9.8 1.2 4.4 2 8.3 4.4 13.3 5 4.7.5 9.1 0 13.3-2.2M43.4 34.6h-9.8c-.7 0-1.3-.6-1.3-1.3V28c0-.7.6-1.3 1.3-1.3h9.8c.7 0 1.3.6 1.3 1.3v5.4c0 .6-.6 1.2-1.3 1.2zM64.1 34.6h-9.8c-.7 0-1.3-.6-1.3-1.3V28c0-.7.6-1.3 1.3-1.3h9.8c.7 0 1.3.6 1.3 1.3v5.4c0 .6-.5 1.2-1.3 1.2z" />
    <path d="M44.7 29.6L53.1 29.6" />
    <path d="M26.6 26.7L32.4 29.2" />
    <path d="M65.4 29.2L71 26.7" />
    <path d="M61.7 61.3L48.9 72.8 36.1 61.3" />
    <path d="M69.4 92.2L83.9 89.4" />
</svg>
